<svg width="42" height="11" viewBox="0 0 42 11" fill="none" xmlns="http://www.w3.org/2000/svg">
<path d="M27.3691 1.09807C27.8126 0.72778 28.2387 0.332804 28.7114 0C28.715 3.33535 28.7205 6.67162 28.7032 10.007C28.257 10.0097 27.8117 10.0106 27.3655 10.0061C27.3819 7.03734 27.3746 4.0677 27.3691 1.09807Z" fill="#160F42"/>
<path d="M19.5819 1.08157C19.9797 0.804539 20.4661 0.739623 20.936 0.693909C20.9214 1.84866 20.9506 3.00433 20.9205 4.15818C21.6523 3.63611 22.6387 3.4752 23.491 3.77417C24.1042 3.95155 24.5997 4.39041 24.9966 4.8759C25.4355 5.46105 25.5989 6.21717 25.5806 6.93947C25.5843 7.96073 25.5642 8.982 25.5906 10.0033C25.1426 10.0124 24.6937 10.0106 24.2447 10.0042C24.2684 8.95 24.2475 7.89582 24.2566 6.84164C24.263 6.50609 24.1872 6.17146 24.0239 5.87888C23.7091 5.1895 22.8596 4.7799 22.1314 5.02584C21.4552 5.26082 20.9388 5.93465 20.9415 6.66152C20.9251 7.77605 20.9306 8.8924 20.9406 10.0078C20.4871 10.0097 20.0336 10.0106 19.5801 10.006C19.5965 7.03181 19.5938 4.05669 19.5819 1.08157Z" fill="#160F42"/>
<path d="M2.18264 3.75763C2.96373 3.49889 3.84428 3.6406 4.5396 4.06575C4.97303 4.32541 5.28693 4.73044 5.5844 5.12999C5.20936 5.42348 4.74035 5.57891 4.26311 5.56337C3.95925 5.26256 3.58878 4.98736 3.14714 4.96267C2.46551 4.89136 1.81491 5.35216 1.52474 5.95011C1.303 6.47126 1.30939 7.07744 1.4928 7.60956C1.72457 8.07311 2.11512 8.50923 2.64253 8.61437C3.24021 8.76706 3.88899 8.52203 4.27224 8.04568C4.74856 8.02282 5.18838 8.22122 5.56706 8.49368C5.19203 9.10443 4.63358 9.60364 3.95378 9.84593C3.28401 10.0955 2.52026 10.0571 1.87057 9.76456C0.825771 9.30832 0.11768 8.23768 0.0145688 7.11127C-0.126867 5.68405 0.773759 4.15352 2.18264 3.75763Z" fill="#160F42"/>
<path d="M14.1006 4.29116C14.586 3.82761 15.275 3.65938 15.9265 3.62463C16.6081 3.63378 17.3426 3.78281 17.8527 4.26738C18.0717 4.46579 18.2223 4.72362 18.382 4.96865C18.0371 5.2402 17.6301 5.43311 17.1866 5.4578C16.9904 5.09756 16.6017 4.88179 16.1957 4.87539C15.8042 4.83699 15.2877 4.88545 15.1071 5.29688C14.9574 5.51357 15.1308 5.77597 15.3115 5.90855C15.8516 6.28615 16.5606 6.22581 17.13 6.54215C17.5607 6.79267 18.0152 7.09073 18.2022 7.57805C18.475 8.07268 18.3455 8.69623 18.0215 9.13418C17.0032 10.2524 15.0505 10.3219 13.9646 9.26584C13.7812 9.09212 13.6681 8.86081 13.5303 8.65326C13.8825 8.39452 14.2904 8.21166 14.7256 8.15497C14.9017 8.54446 15.3306 8.73829 15.7403 8.74835C16.1217 8.78309 16.5971 8.73006 16.8079 8.36069C16.9357 8.17783 16.8627 7.93554 16.7021 7.80114C16.1473 7.36045 15.3908 7.40342 14.7831 7.0761C14.2557 6.8201 13.7776 6.38124 13.617 5.79974C13.4856 5.25848 13.6671 4.64773 14.1006 4.29116Z" fill="#160F42"/>
<path fill-rule="evenodd" clip-rule="evenodd" d="M34.702 4.20438C33.4856 3.29191 31.6205 3.39706 30.5429 4.48324C29.3366 5.5932 29.2398 7.66682 30.3184 8.89563C30.9407 9.6417 31.9244 10.108 32.9035 10.0358C33.9519 10.0632 34.848 9.39758 35.5196 8.65426C35.4149 8.54521 35.3073 8.43917 35.1998 8.33318C34.999 8.13525 34.7984 7.9375 34.6171 7.72076C34.5173 7.80966 34.4236 7.90808 34.3297 8.00668C34.1012 8.24678 33.8717 8.48789 33.5495 8.59483C33.0367 8.83255 32.4427 8.77952 31.9317 8.56832C32.3834 8.11946 32.8321 7.66774 33.2807 7.21606C34.0218 6.46983 34.7629 5.72369 35.5178 4.99067C35.2737 4.70536 34.9911 4.45773 34.7099 4.21134L34.702 4.20438ZM31.041 7.67088C30.7892 7.14151 30.7573 6.49876 31.0292 5.97121C31.4434 5.0112 32.7155 4.54765 33.6343 5.07245C32.7492 5.91726 31.8751 6.77579 31.041 7.67088Z" fill="#160F42"/>
<path d="M36.5679 3.62646C38.3755 3.62372 40.1831 3.62646 41.9899 3.62463C41.9853 3.95378 41.9844 4.28293 41.9899 4.61207C40.8046 5.99266 39.663 7.41073 38.4677 8.78218C39.5125 8.76846 40.5582 8.78675 41.6039 8.77121C41.8722 9.12595 41.9944 9.5639 41.9999 10.0055C40.1959 10.0128 38.3919 10.0101 36.5889 10.0064C36.5971 9.66996 36.5971 9.33441 36.5916 8.99795C37.7395 7.60914 38.9102 6.24044 40.0572 4.8507C39.0225 4.85345 37.9877 4.85893 36.9529 4.84888C36.7029 4.48864 36.6025 4.0571 36.5679 3.62646Z" fill="#160F42"/>
<path d="M7.12014 4.60427C7.72786 3.92861 8.64309 3.56655 9.54462 3.58118C10.5903 3.58026 11.636 3.58483 12.6818 3.58026C12.2575 4.00724 11.8185 4.41867 11.4088 4.86028C10.6962 4.87673 9.98353 4.8429 9.27179 4.8749C8.29269 4.95079 7.49335 5.86692 7.5189 6.84521C7.51343 7.34899 7.76071 7.80979 8.07187 8.18923C7.77075 8.49277 7.45868 8.78535 7.16212 9.09438C6.47136 8.3858 6.12371 7.35813 6.2697 6.37526C6.37373 5.72063 6.64565 5.07696 7.12014 4.60427Z" fill="#28C4F4"/>
<path d="M12.6818 3.58061L12.6964 3.56689C12.6827 4.72165 12.7046 5.87641 12.6863 7.03116C12.6179 8.49038 11.4371 9.79691 9.99721 10.0127C9.47162 10.0566 8.92321 10.0712 8.42317 9.88011C7.95324 9.71188 7.53258 9.42662 7.16211 9.09473C7.45867 8.7857 7.77074 8.49312 8.07186 8.18958C8.59472 8.68421 9.38767 8.89633 10.0748 8.65678C10.8504 8.43004 11.4088 7.64466 11.4097 6.84282C11.418 6.18178 11.4088 5.52075 11.4088 4.86062C11.8185 4.41902 12.2574 4.00759 12.6818 3.58061Z" fill="#A8A9AD"/>
</svg>
