<svg width="50" height="32" viewBox="0 0 50 32" fill="none" xmlns="http://www.w3.org/2000/svg">
<rect width="50" height="32" rx="4" fill="white"/>
<g clip-path="url(#clip0_14_6076)">
<path fill-rule="evenodd" clip-rule="evenodd" d="M9.53781 10.0223C7.51276 10.2099 5.87165 11.2606 4.87494 12.8824C4.22726 13.9361 3.9228 15.1846 4.01669 16.4658C4.24642 19.6003 6.99535 22.254 10.5139 21.9808C13.6708 21.7356 16.2755 18.9528 16.0087 15.5301C15.9109 14.277 15.4665 13.2443 14.754 12.3117C14.4314 11.8895 14.3678 11.8826 14.0309 11.5369C13.6132 11.1081 12.7298 10.6159 12.166 10.3981C11.41 10.106 10.4474 9.93793 9.53781 10.0223Z" fill="#108DE8"/>
<path fill-rule="evenodd" clip-rule="evenodd" d="M6.53114 14.2515C6.45437 14.4687 6.50007 16.8839 6.50007 17.3319C6.50007 17.8166 6.40244 17.9679 7.17622 18.2272C9.22497 18.9138 11.2536 16.5859 13.2908 17.7377C13.3853 17.791 13.5003 17.9005 13.5272 17.7237L13.528 14.6167C13.5282 14.2825 13.5587 14.1778 13.3324 14.0235C11.5095 12.779 9.53566 14.9076 7.68591 14.6688C7.00137 14.5805 6.71789 14.2382 6.53114 14.2515Z" fill="white"/>
<path fill-rule="evenodd" clip-rule="evenodd" d="M20.606 19.0411C21.4046 19.097 22.3349 18.4901 22.6627 18.1425C23.8013 16.9351 23.8287 15.1881 22.6826 13.9238C22.2558 13.453 21.2566 12.9326 20.6192 13.0055L18.3175 13.0072L18.3169 19.0335L20.606 19.0411ZM19.6099 17.7353C19.7794 17.7642 20.4757 17.7534 20.667 17.7362C22.2394 17.5953 22.7948 15.4886 21.4729 14.6062C21.2535 14.4596 21.0094 14.3429 20.689 14.308C20.5136 14.2888 19.7643 14.2769 19.6091 14.3043L19.6099 17.7353Z" fill="#108DE8"/>
<path fill-rule="evenodd" clip-rule="evenodd" d="M40.7659 19.0524L42.0751 19.0518L42.0765 17.753L44.6744 17.7534L44.682 19.052L45.9906 19.0522C45.9915 18.3304 45.991 17.6144 45.991 16.8985C45.991 16.2536 46.0463 15.4463 45.8839 14.8613C45.6093 13.8712 44.6484 12.9931 43.3839 12.9882C42.1057 12.9833 41.178 13.8588 40.8818 14.8346C40.7065 15.4121 40.765 16.24 40.765 16.8756C40.765 17.6001 40.7574 18.3284 40.7659 19.0524ZM42.0764 16.4462L44.6808 16.4473C44.6872 15.8902 44.7482 15.3487 44.4931 14.9218C44.3105 14.6165 43.9254 14.297 43.3845 14.2947C42.8328 14.2925 42.4648 14.5993 42.268 14.9156C42.01 15.3305 42.0683 15.9017 42.0764 16.4462Z" fill="#108DE8"/>
<path fill-rule="evenodd" clip-rule="evenodd" d="M25.7908 19.0509L27.0956 19.052C27.0964 18.7809 27.0606 17.9499 27.1083 17.7529L29.6962 17.7532L29.7054 19.0511L31.0119 19.0523C31.0051 18.3326 31.0113 17.6141 31.0113 16.8984C31.0113 16.2844 31.0694 15.4048 30.9052 14.8604C30.1575 12.3814 26.6766 12.3639 25.9041 14.8356C25.7291 15.3954 25.7889 16.2521 25.7889 16.8755C25.7889 17.595 25.7721 18.3339 25.7908 19.0509ZM27.0964 16.446L29.7042 16.4473C29.7096 15.8983 29.7708 15.3466 29.515 14.9206C29.047 14.141 27.8566 14.0288 27.2903 14.9169C27.0314 15.3229 27.0879 15.9114 27.0964 16.446Z" fill="#108DE8"/>
<path fill-rule="evenodd" clip-rule="evenodd" d="M33.3085 15.3593L33.2907 16.2596C33.2907 17.0143 33.2523 18.4223 33.2934 19.0347L34.5729 19.0353C34.6026 18.6061 34.5266 15.5431 34.6077 15.4456C34.608 14.8503 35.2413 14.2969 35.8819 14.2946C36.2753 14.2931 36.5622 14.45 36.7711 14.6362C36.9341 14.7817 37.1835 15.113 37.1787 15.4487C37.2386 15.4817 37.1913 18.6767 37.2101 19.0345L38.491 19.0353L38.4808 15.3777C38.5128 15.0911 38.3367 14.6481 38.2237 14.4232C37.2756 12.5347 34.554 12.5097 33.5788 14.3907C33.4645 14.6112 33.2815 15.0662 33.3085 15.3593Z" fill="#108DE8"/>
<path fill-rule="evenodd" clip-rule="evenodd" d="M20.6059 19.0411L18.3168 19.0336L18.3173 13.0073L20.619 13.0056C20.5772 12.9481 19.6169 12.9825 19.4823 12.9825C19.1475 12.9825 18.6188 12.9516 18.3076 12.9874C18.2782 13.0834 18.2662 18.898 18.3055 19.0547C18.5175 19.0815 19.9945 19.0608 20.4614 19.0619L20.5898 19.0487C20.5939 19.0476 20.6006 19.0437 20.6059 19.0411Z" fill="#79BBE7"/>
<path fill-rule="evenodd" clip-rule="evenodd" d="M37.1786 15.4487C37.1923 15.9417 37.1514 18.8792 37.1983 19.0554L38.5026 19.0609C38.5366 18.9197 38.5156 16.6291 38.5156 16.2824C38.5156 16.1166 38.5609 15.4654 38.4807 15.3777L38.4909 19.0354L37.21 19.0345C37.1912 18.6767 37.2385 15.4817 37.1786 15.4487Z" fill="#79BBE7"/>
<path fill-rule="evenodd" clip-rule="evenodd" d="M34.6076 15.4456C34.5265 15.5432 34.6025 18.6062 34.5727 19.0354L33.2932 19.0347C33.2522 18.4224 33.2905 17.0144 33.2905 16.2596L33.3083 15.3594C33.2355 15.3904 33.2681 16.9948 33.2681 17.195C33.2681 17.4866 33.2327 18.8889 33.2836 19.056L34.5871 19.0607L34.6076 15.4456Z" fill="#79BBE7"/>
</g>
<defs>
<clipPath id="clip0_14_6076">
<rect width="42" height="12" fill="white" transform="translate(4 10)"/>
</clipPath>
</defs>
</svg>
