<svg width="42" height="14" viewBox="0 0 42 14" fill="none" xmlns="http://www.w3.org/2000/svg">
<g clip-path="url(#clip0_103_733)">
<path d="M22.8219 12.1052C22.7784 12.9275 22.4162 13.4907 21.7218 13.8316C21.52 13.9306 21.3318 13.8523 21.2399 13.6431C21.1692 13.4819 21.2502 13.2983 21.4403 13.2126C21.932 12.9907 22.1479 12.5359 22.1387 12.1074C22.1274 11.5864 21.8189 11.1891 21.3337 11.0183C20.8665 10.8538 20.3785 11.0134 20.0338 11.4436C19.769 11.774 19.7462 12.3444 19.9786 12.7271C20.1074 12.9393 20.2779 13.0994 20.5017 13.206C20.7125 13.3066 20.7869 13.4921 20.7017 13.6756C20.6146 13.8631 20.4083 13.9231 20.2012 13.8173C19.6449 13.5333 19.2805 13.0921 19.169 12.466C18.9928 11.4764 19.6038 10.5885 20.4842 10.3422C21.5247 10.0511 22.5243 10.716 22.7568 11.6787C22.7936 11.8308 22.8048 11.989 22.8219 12.1052Z" fill="#00AA11"/>
<path d="M25.4791 11.1004C25.4846 11.0217 25.489 10.9589 25.4938 10.8873C25.6739 10.8873 25.8472 10.8873 26.0312 10.8873C26.0353 10.9272 26.0424 10.965 26.0424 11.0027C26.043 11.6452 26.0463 12.2876 26.0413 12.9301C26.0382 13.3266 25.887 13.6524 25.537 13.8525C25.0983 14.1033 24.4143 14.0241 24.0223 13.691C23.9854 13.6596 23.9503 13.6262 23.9071 13.5872C24.0237 13.4712 24.1379 13.3574 24.2634 13.2324C24.4592 13.3913 24.6785 13.4712 24.9347 13.4634C25.3299 13.4515 25.5245 13.2324 25.473 12.8065C25.1423 13.0683 24.7773 13.0782 24.4069 12.9529C24.1859 12.8782 24.0111 12.7284 23.8875 12.5199C23.6263 12.0792 23.6935 11.52 24.0552 11.1787C24.4429 10.8129 25.0292 10.7753 25.4791 11.1004ZM25.4567 11.9541C25.4567 11.582 25.2568 11.379 24.8934 11.3823C24.5517 11.3854 24.3213 11.612 24.3088 11.9276C24.2924 12.3387 24.5567 12.5239 24.9063 12.519C25.2654 12.5142 25.4567 12.3218 25.4567 11.9541Z" fill="black"/>
<path d="M34.5903 10.8807C34.2589 11.1969 33.957 11.485 33.6508 11.7771C33.9623 12.1962 34.2669 12.606 34.5923 13.044C34.3698 13.044 34.1857 13.0496 34.0024 13.0399C33.9596 13.0377 33.909 12.9915 33.8798 12.9521C33.7106 12.7232 33.5469 12.4902 33.381 12.2588C33.3531 12.2198 33.3235 12.1822 33.2736 12.1159C33.1541 12.2541 33.002 12.363 32.9503 12.5086C32.8959 12.6609 32.9381 12.8483 32.9381 13.0443C32.8388 13.0443 32.7528 13.0443 32.6669 13.0443C32.5847 13.0443 32.5027 13.0443 32.4072 13.0443C32.4035 12.98 32.3978 12.9276 32.3978 12.8754C32.3972 12.0649 32.4017 11.2544 32.3936 10.4438C32.3921 10.2882 32.4393 10.2428 32.5851 10.2587C32.6951 10.2708 32.8073 10.2612 32.9359 10.2612C32.9359 10.7535 32.9359 11.2286 32.9359 11.7439C33.1044 11.5903 33.2443 11.4649 33.3819 11.3367C33.5217 11.2065 33.6579 11.0724 33.7985 10.9431C33.829 10.9151 33.8716 10.8844 33.9092 10.8834C34.1218 10.8777 34.3346 10.8807 34.5903 10.8807Z" fill="black"/>
<path d="M30.445 12.1464C30.4783 12.3752 30.6946 12.5498 30.9438 12.57C31.1542 12.5871 31.3515 12.556 31.5236 12.4176C31.551 12.3954 31.6103 12.3779 31.634 12.3927C31.7491 12.464 31.857 12.5471 31.978 12.6338C31.6047 13.0098 31.1801 13.1134 30.6915 12.9913C30.2945 12.892 30.0063 12.6666 29.913 12.2543C29.7102 11.357 30.3932 10.7641 31.1826 10.8995C31.6406 10.9779 31.9259 11.2496 32.0333 11.7026C32.0653 11.838 32.0561 11.9836 32.0672 12.1464C31.7806 12.1464 31.5134 12.1464 31.2462 12.1464C30.983 12.1464 30.7197 12.1464 30.445 12.1464ZM31.5046 11.7328C31.4674 11.4638 31.2562 11.3354 30.9001 11.3522C30.645 11.3644 30.4722 11.5111 30.4595 11.7328C30.8053 11.7328 31.1507 11.7328 31.5046 11.7328Z" fill="black"/>
<path d="M27.4986 10.8502C28.1299 10.8756 28.5987 11.2733 28.6459 11.8924C28.678 12.3147 28.4944 12.6538 28.1271 12.8815C27.7066 13.1423 27.0398 13.0726 26.6837 12.7244C26.15 12.2024 26.3131 11.2815 26.997 10.9923C27.156 10.925 27.331 10.8966 27.4986 10.8502ZM28.0725 11.9635C28.0715 11.6123 27.8499 11.3797 27.5146 11.3823C27.1384 11.3852 26.942 11.6305 26.9295 11.965C26.9173 12.2862 27.1897 12.5441 27.5086 12.5418C27.8491 12.5392 28.0737 12.309 28.0725 11.9635Z" fill="black"/>
<path d="M28.977 10.8823C29.1705 10.8823 29.3408 10.8823 29.5342 10.8823C29.5342 10.9303 29.5342 10.9771 29.5342 11.024C29.5342 11.8053 29.5346 12.5867 29.5338 13.3682C29.5336 13.7625 29.3063 13.9918 28.9167 13.9931C28.7664 13.9937 28.6161 13.9932 28.4497 13.9932C28.4497 13.9005 28.4497 13.8229 28.4497 13.7452C28.4497 13.667 28.4497 13.5885 28.4497 13.4826C28.5504 13.4826 28.6414 13.4863 28.732 13.4819C28.9381 13.4717 28.977 13.4292 28.977 13.2237C28.9772 12.5015 28.977 11.7796 28.977 11.0574C28.977 11.004 28.977 10.9506 28.977 10.8823Z" fill="black"/>
<path d="M20.297 12.1137C20.2549 11.7975 20.6509 11.4166 20.9875 11.4389C21.3597 11.4637 21.668 11.7577 21.6656 12.1337C21.6633 12.5085 21.3417 12.8397 20.9709 12.8297C20.6003 12.8198 20.2751 12.5227 20.297 12.1137Z" fill="#00AA11"/>
<path d="M7.40771 11.1439H7.98296C8.29595 11.1439 8.48134 11.3228 8.48134 11.6094C8.48134 11.9004 8.29813 12.0706 7.98296 12.0706H7.58247V12.6526H7.40771V11.1439ZM7.9722 11.9026C8.20012 11.9026 8.30454 11.8099 8.30454 11.6094C8.30454 11.409 8.19589 11.312 7.9722 11.312H7.58247V11.9026H7.9722Z" fill="black"/>
<path d="M9.09925 11.478C9.41878 11.478 9.63184 11.7216 9.63184 12.0815C9.63184 12.4414 9.41878 12.6849 9.09925 12.6849C8.78191 12.6849 8.56885 12.4414 8.56885 12.0815C8.56885 11.7216 8.78191 11.478 9.09925 11.478ZM9.09925 11.6354C8.87556 11.6354 8.73502 11.8078 8.73502 12.0815C8.73502 12.3552 8.87556 12.5277 9.09925 12.5277C9.32295 12.5277 9.46567 12.3552 9.46567 12.0815C9.46567 11.8078 9.32295 11.6354 9.09925 11.6354Z" fill="black"/>
<path d="M9.73853 11.5103H9.90252L10.107 12.3983H10.1113L10.4138 11.5103H10.565L10.8675 12.3983H10.8717L11.0763 11.5103H11.2403L10.9699 12.6526H10.8121L10.4926 11.7193H10.4884L10.1667 12.6526H10.009L9.73853 11.5103Z" fill="black"/>
<path d="M11.8711 11.478C12.1736 11.478 12.3759 11.7086 12.3759 12.0449V12.1311H11.5175C11.5217 12.3509 11.6602 12.532 11.8668 12.532C12.0266 12.532 12.116 12.4738 12.2119 12.3034L12.3504 12.3876C12.2545 12.5837 12.0905 12.6849 11.8711 12.6849C11.558 12.6849 11.3491 12.4414 11.3491 12.0815C11.3491 11.7216 11.5644 11.478 11.8711 11.478ZM12.2076 11.9952C12.2055 11.8897 12.1715 11.8035 12.1096 11.7345C12.0479 11.6655 11.9691 11.6311 11.8711 11.6311C11.6794 11.6311 11.5261 11.8035 11.5217 11.9952H12.2076Z" fill="black"/>
<path d="M12.6125 11.5103H12.7701V11.6052H12.7744C12.817 11.5341 12.9 11.491 13.0087 11.491C13.0428 11.491 13.0812 11.4974 13.1217 11.5082L13.0853 11.6827C13.0449 11.6698 13.0065 11.6634 12.9746 11.6634C12.8403 11.6634 12.7786 11.754 12.7786 11.9673V12.6526H12.6125V11.5103Z" fill="black"/>
<path d="M13.7203 11.478C14.0229 11.478 14.2252 11.7086 14.2252 12.0449V12.1311H13.3667C13.3709 12.3509 13.5094 12.532 13.7161 12.532C13.8758 12.532 13.9654 12.4738 14.0611 12.3034L14.1996 12.3876C14.1038 12.5837 13.9398 12.6849 13.7203 12.6849C13.4072 12.6849 13.1985 12.4414 13.1985 12.0815C13.1985 11.7216 13.4136 11.478 13.7203 11.478ZM14.057 11.9952C14.0548 11.8897 14.0207 11.8035 13.959 11.7345C13.8971 11.6655 13.8183 11.6311 13.7203 11.6311C13.5286 11.6311 13.3753 11.8035 13.3709 11.9952H14.057Z" fill="black"/>
<path d="M14.9262 11.4779C15.0625 11.4779 15.1839 11.5361 15.2586 11.631H15.2627V11.0792H15.429V12.6526H15.2692V12.5382H15.2649C15.1903 12.631 15.0646 12.6848 14.9262 12.6848C14.6322 12.6848 14.4192 12.437 14.4192 12.0814C14.4192 11.7258 14.6322 11.4779 14.9262 11.4779ZM15.2627 11.9693C15.2627 11.784 15.1137 11.6353 14.9262 11.6353C14.7239 11.6353 14.5854 11.812 14.5854 12.0814C14.5854 12.3508 14.7239 12.5276 14.9369 12.5276C15.1159 12.5276 15.2627 12.3767 15.2627 12.1914V11.9693Z" fill="black"/>
<path d="M16.4452 12.5382V12.6526H16.2854V11.0792H16.4516V11.631H16.4558C16.5305 11.5361 16.6518 11.4779 16.7881 11.4779C17.0822 11.4779 17.2951 11.7258 17.2951 12.0814C17.2951 12.437 17.0822 12.6848 16.7881 12.6848C16.6496 12.6848 16.524 12.631 16.4494 12.5382H16.4452ZM16.7881 11.6353C16.6007 11.6353 16.4516 11.784 16.4516 11.9693V12.1914C16.4516 12.3767 16.5985 12.5276 16.7775 12.5276C16.9906 12.5276 17.1291 12.3508 17.1291 12.0814C17.1291 11.812 16.9906 11.6353 16.7881 11.6353Z" fill="black"/>
<path d="M17.7854 12.5556L17.3508 11.5103H17.5276L17.8706 12.3616H17.875L18.22 11.5103H18.3968L17.7194 13.1375H17.5468L17.7854 12.5556Z" fill="black"/>
<path d="M4.58406 0C7.11464 0 9.16605 2.00289 9.16605 4.47358C9.16605 6.94439 7.11464 8.94728 4.58406 8.94728C2.05361 8.94728 0.00219727 6.94439 0.00219727 4.47358C0.00219727 2.00289 2.05361 0 4.58406 0Z" fill="#00AED6"/>
<path fill-rule="evenodd" clip-rule="evenodd" d="M7.25641 4.33565C7.22156 3.76636 6.72511 3.3298 6.14153 3.3552H3.24736C3.14179 3.3552 3.05634 3.27173 3.05634 3.16881C3.05634 3.06589 3.14179 2.98242 3.24736 2.98242H6.17971C6.16255 2.59654 5.89273 2.26536 5.51145 2.16231C4.65665 2.01312 3.78148 2.01312 2.92656 2.16231C2.44073 2.27884 2.07727 2.67353 2.01013 3.15766C1.87651 4.03506 1.87651 4.9271 2.01013 5.8045C2.1125 6.31676 2.52939 6.71327 3.05634 6.79998C4.11625 6.93038 5.1886 6.93038 6.24838 6.79998C6.72062 6.70653 7.07794 6.32765 7.13432 5.8605C7.2313 5.35796 7.27217 4.84674 7.25641 4.33565ZM6.30194 4.96197V5.12607C6.30194 5.22899 6.21648 5.31246 6.11104 5.31246C6.0056 5.31246 5.92015 5.22899 5.92015 5.12607V4.96197C5.85839 4.90948 5.82355 4.83313 5.82457 4.75328C5.82457 4.59878 5.95282 4.47356 6.11104 4.47356C6.26914 4.47356 6.39738 4.59878 6.39738 4.75328C6.39649 4.83274 6.3619 4.90831 6.30194 4.96197Z" fill="white"/>
<path d="M22.2161 3.97035C22.2224 3.18589 21.5761 2.54504 20.7727 2.53882C19.9694 2.53273 19.313 3.16359 19.3067 3.94805C19.3004 4.73251 19.9465 5.37335 20.7499 5.37945C20.7576 5.37957 20.7652 5.37957 20.7727 5.37945C21.535 5.41937 22.1861 4.84839 22.227 4.10411C22.2294 4.05952 22.2295 4.01494 22.2275 3.97035H22.2161ZM17.8938 3.97035C17.8938 2.47907 19.1004 1.34204 20.7727 1.34204C22.4452 1.34204 23.6517 2.48659 23.6517 3.97035C23.6517 5.45411 22.4566 6.60228 20.7727 6.60228C19.0889 6.60228 17.8938 5.45787 17.8938 3.97035Z" fill="black"/>
<path d="M15.6029 4.24248C15.6029 4.85766 14.9616 5.36097 14.1483 5.36097C13.4014 5.4346 12.7346 4.90316 12.6592 4.17391C12.6515 4.10016 12.6502 4.02576 12.6553 3.95174C12.6553 3.13903 13.2662 2.57985 14.2056 2.57985C14.9691 2.57985 15.6029 3.09055 15.6029 3.6684V4.24248ZM15.6603 1.33835V1.92747C15.1955 1.51541 14.58 1.30426 13.9536 1.3421C12.4721 1.35546 11.2823 2.53889 11.296 3.98532C11.3097 5.43175 12.5217 6.5934 14.0031 6.58005C14.6131 6.60662 15.2068 6.38368 15.6411 5.96487V6.46819C15.6411 7.15038 15.0379 7.64993 14.2437 7.64993C13.6371 7.69271 13.0397 7.48739 12.5942 7.08323L11.6664 7.95571C12.3621 8.62234 13.3077 8.98087 14.2819 8.9473C15.9085 8.9473 17.0234 7.88105 17.0234 6.46067V1.33835H15.6603Z" fill="black"/>
<path d="M24.4917 1.49132H25.8586V1.93112H25.8777C26.3258 1.53228 26.9176 1.3232 27.5235 1.34965C29.0112 1.40435 30.1718 2.62614 30.1158 4.0788C30.0626 5.45458 28.9325 6.55804 27.5235 6.60989C26.9446 6.62298 26.3798 6.43684 25.9274 6.08415V8.57454H24.5032L24.4917 1.49132ZM27.302 2.57987C26.5382 2.57987 25.9159 3.09809 25.9159 3.6609V4.29098C25.9159 4.89125 26.5307 5.38705 27.3096 5.38705C28.1036 5.42697 28.7803 4.83098 28.8213 4.05585C28.8622 3.2806 28.2518 2.61979 27.4577 2.57987C27.4084 2.57741 27.359 2.57741 27.3096 2.57987H27.302Z" fill="black"/>
<path d="M32.8499 3.48948C33.7855 3.36634 34.0641 3.23594 34.0641 2.98241C34.0641 2.65434 33.7091 2.4568 33.1592 2.4568C32.5665 2.40936 32.0269 2.7907 31.8878 3.35519L30.5437 3.08312C30.7347 2.0691 31.8037 1.34583 33.121 1.34583C34.6101 1.34583 35.5343 2.0914 35.5343 3.29933V6.46439H34.2551V5.9126H34.236C33.802 6.3896 33.1659 6.64301 32.514 6.59855C31.3876 6.59855 30.6048 5.99841 30.6048 5.1074C30.6048 4.21639 31.2463 3.70569 32.8499 3.48948ZM34.1788 4.01509H34.1597C34.0336 4.19397 33.7778 4.29844 33.0715 4.41769C32.2352 4.57051 31.926 4.73085 31.926 5.02159C31.926 5.31246 32.1741 5.45413 32.7125 5.45413C33.5334 5.45413 34.1672 5.08134 34.1672 4.60784L34.1788 4.01509Z" fill="black"/>
<path d="M38.1116 6.18487L35.7556 1.49133H37.3249L38.8713 4.74207H38.8942L40.4215 1.49133H41.9985L38.4704 8.57455H36.9011L38.1116 6.18487Z" fill="black"/>
</g>
<defs>
<clipPath id="clip0_103_733">
<rect width="42" height="14" fill="white"/>
</clipPath>
</defs>
</svg>
