<svg width="42" height="15" viewBox="0 0 42 15" fill="none" xmlns="http://www.w3.org/2000/svg">
<g clip-path="url(#clip0_103_2193)">
<path fill-rule="evenodd" clip-rule="evenodd" d="M0.00415039 0H41.9966V15H0.00415039V0Z" fill="white"/>
<path fill-rule="evenodd" clip-rule="evenodd" d="M1.86848 0.938599H40.1314C40.6691 0.938599 41.109 1.38748 41.109 1.93675V5.01682H36.3203C36.0689 2.22774 23.4589 1.63326 21.2798 1.6166C17.7667 1.58973 5.66792 2.42 5.66792 4.96266L5.66771 5.01682H0.890869V1.93675C0.890869 1.38748 1.33071 0.938599 1.86848 0.938599Z" fill="#FF0000"/>
<path fill-rule="evenodd" clip-rule="evenodd" d="M5.66439 9.57634H0.890869V5.43542H5.66709C5.66294 6.7329 5.64551 8.32386 5.66439 9.57634ZM41.109 5.43542V9.57634H36.3313C36.3691 8.28199 36.2844 6.74165 36.3151 5.43542H41.109Z" fill="#0000FF"/>
<path fill-rule="evenodd" clip-rule="evenodd" d="M41.109 9.99512V13.0635C41.109 13.6124 40.6691 14.0615 40.1314 14.0615H1.86848C1.33071 14.0615 0.890869 13.6124 0.890869 13.0635V9.99512H5.69655C6.2866 12.5015 16.1976 13.4864 21.1555 13.5143C23.9485 13.5299 35.5755 12.638 36.2888 9.99512H41.109Z" fill="#F9CD09"/>
<path fill-rule="evenodd" clip-rule="evenodd" d="M21.2207 2.34832C23.9442 2.37352 35.6092 3.56372 35.5019 5.04096C35.4118 6.28136 35.595 8.68655 35.5019 9.92695C35.394 11.3644 23.8614 12.6215 21.1471 12.5983C18.2209 12.5736 6.53812 11.6014 6.4904 9.79385C6.45762 8.55095 6.4904 6.42112 6.4904 5.17781C6.4904 3.33293 18.2495 2.32103 21.2207 2.34832ZM21.2085 3.4804C18.4031 3.45916 7.29996 4.13862 7.29996 5.57586C7.29996 6.54485 7.26987 8.45805 7.29996 9.42641C7.34498 10.8712 18.3761 11.4471 21.139 11.4663C23.7019 11.4842 34.5911 10.6499 34.693 9.53014C34.7809 8.56365 34.6081 6.47216 34.693 5.50566C34.7944 4.35483 23.7801 3.49998 21.2085 3.4804Z" fill="#E6252D"/>
<path fill-rule="evenodd" clip-rule="evenodd" d="M16.5719 7.63365C16.715 7.69843 16.6879 8.04691 16.5111 8.40914C16.3341 8.77157 16.0733 9.01403 15.93 8.94925C15.7866 8.88447 15.8138 8.53599 15.9908 8.17356C16.1675 7.81112 16.4285 7.56867 16.5719 7.63365ZM26.2779 7.6649C26.421 7.72989 26.3941 8.07837 26.2171 8.44059C26.0401 8.80282 25.7793 9.04548 25.6359 8.9805C25.4926 8.91572 25.5198 8.56744 25.6967 8.20501C25.8735 7.84278 26.1345 7.60012 26.2779 7.6649ZM31.0425 7.56325C31.1207 7.62262 31.0499 7.85007 30.8848 8.06962C30.7196 8.28895 30.5211 8.41935 30.4427 8.35998C30.3645 8.30041 30.4352 8.07295 30.6003 7.85362C30.7655 7.63428 30.964 7.50368 31.0425 7.56325ZM31.1429 7.09354C30.5981 7.05188 30.2333 7.4314 30.0422 7.80612C29.8906 8.10336 29.8456 8.53037 29.9539 8.88718C29.7968 9.01466 29.6007 9.12484 29.2891 9.18733C29.1346 9.21816 29.0493 9.10068 29.0507 8.99278C29.0545 8.68222 29.0879 8.42205 29.1767 8.13065C29.213 8.01046 29.337 8.0515 29.379 7.94964C29.4659 7.73843 29.4765 7.5343 29.1987 7.56783C29.0204 7.58908 28.8271 7.61616 28.8204 7.37391C28.8138 7.13749 29.1014 7.01127 29.0584 6.99085C28.8997 6.9142 28.7657 6.99023 28.5997 6.93086C28.5532 6.9142 28.5914 6.80818 28.5445 6.79235C28.481 6.77131 28.3694 6.83859 28.3329 6.89462C28.2526 7.01814 28.2596 7.13125 28.1997 7.27705C28.1499 7.39932 28.1447 7.53534 28.1171 7.66448C28.0306 7.91902 27.4818 8.70721 27.0787 8.9128C26.8524 9.0284 26.7096 8.92655 26.7797 8.68888C26.8733 8.37186 27.1841 7.59991 27.3864 7.05543C27.1887 7.06022 27.0134 7.07584 26.8158 7.08042C26.7926 7.14978 26.7586 7.19665 26.7355 7.2658C26.2926 6.98127 26.0233 7.09021 25.6212 7.38058C25.322 7.59679 25.0594 7.9236 24.9183 8.3152C24.8621 8.47059 24.8314 8.62806 24.8272 8.77553C24.5826 8.86447 24.3395 8.99612 24.1212 8.96341C24.0681 8.9555 24.0316 8.87364 24.0438 8.82094C24.1168 8.50433 24.2714 8.21168 24.3666 7.9009C24.4264 7.70572 24.5455 7.50576 24.5085 7.30496C24.4587 7.0346 24.115 7.02626 23.9276 7.12354C23.7687 7.20644 23.6475 7.35121 23.489 7.43452C23.4575 7.45098 23.4121 7.43265 23.3855 7.4087C23.3174 7.34662 23.2853 7.25143 23.2179 7.18853C23.1585 7.13291 23.0909 7.07521 23.0112 7.05876C22.9139 7.03876 22.8062 7.04647 22.7145 7.08459C22.5203 7.16582 22.3817 7.38724 22.1726 7.4087C22.0819 7.41786 22.1402 7.21998 22.0822 7.14958C21.9421 6.97981 21.8081 7.03876 21.6433 7.11062C21.305 7.2581 20.9705 7.41474 20.6344 7.56783C20.6676 7.63595 20.6958 7.70677 20.7186 7.78009C20.8527 7.73405 20.9911 7.67511 21.1272 7.64178C21.1898 7.62636 21.2662 7.59429 21.3207 7.62886C21.3701 7.66011 21.3898 7.74114 21.3722 7.79737C21.1886 8.39102 20.9421 8.96341 20.7271 9.54643C20.9508 9.54206 21.1745 9.53789 21.3981 9.53373C21.6004 9.01091 21.7413 8.46017 22.0048 7.96568C22.0523 7.87674 22.1898 7.84237 22.2886 7.86216C22.3564 7.87569 22.3799 7.97505 22.3919 8.04337C22.4068 8.12898 22.394 8.22042 22.3662 8.3027C22.2253 8.71971 22.0477 9.12318 21.8886 9.53373C22.1338 9.52915 22.3919 9.55081 22.6369 9.54643C22.8737 9.00237 22.9668 8.44434 23.2567 7.92693C23.2925 7.86257 23.4828 7.84153 23.5533 7.86216C23.6004 7.8759 23.654 7.93068 23.6438 7.9788C23.5811 8.26979 23.421 8.53266 23.3469 8.82094C23.3127 8.95508 23.2836 9.10235 23.3212 9.23545C23.3527 9.34793 23.4365 9.45541 23.5405 9.50769C23.6291 9.55206 23.7459 9.5329 23.8374 9.49457C24.1847 9.35001 24.5067 9.1513 24.839 8.97404C24.8973 9.34897 25.1654 9.6058 25.6766 9.49186C25.8552 9.45187 25.9523 9.33501 26.1177 9.25649C26.2013 9.52519 26.386 9.63496 26.6829 9.51248C27.4159 9.21025 27.8455 8.68492 28.3877 7.89736C28.475 7.91673 28.6474 7.86695 28.7348 7.8684C28.6414 8.15169 28.0634 9.16359 28.6675 9.46853C28.8364 9.55352 28.9655 9.52581 29.1514 9.49186C29.5688 9.41542 29.8263 9.23753 30.0271 9.0711C30.1288 9.27169 30.292 9.43166 30.5279 9.50415C31.0089 9.65246 31.5585 9.39688 31.9018 9.24482C32.085 9.56185 32.5568 9.62038 32.8328 9.51956C33.1238 9.41313 33.3865 9.22712 33.6187 9.02132C33.667 8.97841 33.6618 8.86968 33.6135 8.82719C33.5682 8.7874 33.4925 8.85843 33.4442 8.89468C33.2433 9.04507 32.8408 9.42479 32.6141 9.10589C32.5126 8.96279 32.5803 8.72158 32.6809 8.44809C32.7788 8.18126 32.8732 7.83612 32.9693 7.56867C33.1064 7.55742 33.2604 7.572 33.3973 7.56075C33.4566 7.39349 33.4817 7.26039 33.5411 7.09313C33.4485 7.08584 33.322 7.09542 33.2294 7.08813C33.3149 6.64029 33.4989 6.18412 33.6552 5.73629C33.4448 5.74025 33.2682 5.75295 33.0579 5.75691C32.9103 6.19246 32.7944 6.61946 32.5931 7.0548C32.4556 7.05897 32.3093 7.07146 32.172 7.07563C32.1354 7.23831 32.0991 7.40099 32.0626 7.56388C32.1678 7.55992 32.3155 7.55575 32.4207 7.55159C32.2871 8.06254 32.1419 8.52329 31.8441 8.91905C31.7383 9.05986 31.5549 9.14005 31.3829 9.17546C30.8562 9.28357 30.653 9.11255 30.5696 8.87281C30.7923 8.68555 31.013 8.59702 31.2132 8.38644C31.536 8.04733 31.9323 7.15395 31.1429 7.09354ZM12.837 5.10474C12.0007 5.20139 10.7616 5.29345 10.0541 5.76128C9.63775 6.03623 9.26409 6.56489 9.63796 7.10271C10.0033 7.62824 10.6556 7.40557 10.9197 7.05626C10.6178 7.01647 10.3768 6.95982 10.3579 6.74257C10.2716 5.75524 11.1706 5.95937 12.0326 5.67713C11.5851 6.74027 11.1822 8.63597 10.0413 8.86989C9.2116 9.04028 8.83089 8.67222 8.63732 8.15356C8.17756 9.04236 8.83504 9.44749 9.42509 9.53873C9.97053 9.6235 10.6691 9.28169 11.0548 8.87635C11.3274 8.69805 11.6 8.49475 11.8477 8.26375C11.9131 8.20314 12.8222 7.5043 12.7382 8.08232C12.6644 8.59202 12.4631 8.96341 12.3125 9.45583C12.5361 9.4602 12.7598 9.46457 12.9834 9.46874C13.1469 8.9807 13.2675 8.476 13.4739 8.00463C13.51 7.92235 13.6046 7.86174 13.6934 7.84903C13.7756 7.83737 13.8955 7.86236 13.9256 7.93985C13.9787 8.07691 13.9032 8.25042 13.8646 8.39206C13.8015 8.62368 13.4536 9.37792 13.9059 9.43562C14.3501 9.49228 14.8492 9.17317 15.1125 8.95842C15.1493 9.18296 15.2671 9.37813 15.5026 9.49061C15.6644 9.56768 15.8654 9.51811 16.0401 9.47811C16.1818 9.4452 16.2984 9.34397 16.4277 9.27711C16.4045 9.60247 16.7138 9.56414 16.9209 9.46541C17.3891 9.24211 17.6505 9.08527 17.97 8.97841C17.9373 8.92071 17.908 8.86052 17.8825 8.79844C17.6522 8.85718 17.4258 8.96883 17.1902 8.95092C17.1113 8.94488 17.0902 8.80011 17.1151 8.72492C17.4456 7.72989 17.8653 6.76694 18.2402 5.78795C18.0445 5.80065 17.8943 5.80065 17.6983 5.81315C17.5441 6.23141 17.3443 6.66237 17.1902 7.08063C16.4543 6.94565 15.7692 7.15187 15.2899 8.07233C15.1876 8.26854 15.1152 8.49871 15.1017 8.71992C14.9351 8.82969 14.78 8.94238 14.5839 8.99174C14.5109 9.01007 14.4548 8.89551 14.4677 8.82094C14.5102 8.57369 14.5957 8.33665 14.6789 8.09899C14.7356 7.93673 14.9457 7.46473 14.8677 7.30496C14.7335 7.02793 14.5368 7.02939 14.3372 7.11187C14.0808 7.21748 13.8198 7.45681 13.6806 7.4087C13.4758 7.33767 13.5339 7.02043 13.2264 7.05626C13.1293 7.06751 13.0303 7.10708 12.9449 7.14958C12.5061 7.36662 12.0894 7.67802 11.6699 7.94547C12.0726 7.16853 12.4544 6.13309 12.837 5.10474Z" fill="#0000FF"/>
<path d="M19.2787 6.7146H19.2789C19.6939 6.71481 20.0709 6.88478 20.3439 7.15889V7.1591C20.6167 7.43322 20.786 7.81128 20.7862 8.22766V8.22849C20.7862 8.64508 20.6167 9.02356 20.3439 9.29767H20.3435C20.0704 9.57158 19.6939 9.74155 19.2794 9.74155H19.2783C18.8634 9.74155 18.4864 9.57158 18.2136 9.29747C17.9405 9.02335 17.7712 8.64529 17.7712 8.2287V8.22787C17.7712 7.81107 17.9405 7.4326 18.2136 7.15869C18.4864 6.88478 18.8632 6.71481 19.2783 6.7146H19.2787ZM19.2789 6.89915H19.2783C18.914 6.89936 18.5833 7.0485 18.3437 7.28929C18.1038 7.52987 17.9549 7.8621 17.9549 8.22787V8.2287C17.9551 8.59426 18.1038 8.92649 18.3434 9.16707C18.5833 9.40766 18.9142 9.557 19.2783 9.557H19.2794C19.6435 9.5568 19.9742 9.40786 20.2138 9.16728V9.16707C20.4534 8.92649 20.6024 8.59405 20.6024 8.22849V8.22766C20.6022 7.86189 20.4537 7.52987 20.2142 7.28929H20.2138C19.9742 7.0485 19.6433 6.89915 19.2789 6.89915Z" fill="#FF0000"/>
<path fill-rule="evenodd" clip-rule="evenodd" d="M19.2787 7.08325C19.9083 7.08325 20.4189 7.59587 20.4189 8.22804C20.4189 8.86043 19.9083 9.37284 19.2787 9.37284C18.6488 9.37284 18.1382 8.86043 18.1382 8.22804C18.1382 7.59587 18.6488 7.08325 19.2787 7.08325ZM19.2787 7.31883C19.7787 7.31883 20.1843 7.72605 20.1843 8.22804C20.1843 8.73025 19.7787 9.13726 19.2787 9.13726C18.7784 9.13726 18.373 8.73025 18.373 8.22804C18.373 7.72605 18.7784 7.31883 19.2787 7.31883Z" fill="#FF0000"/>
<path fill-rule="evenodd" clip-rule="evenodd" d="M19.2786 7.5415C19.6562 7.5415 19.9624 7.84895 19.9624 8.22805C19.9624 8.60714 19.6562 8.91459 19.2786 8.91459C18.901 8.91459 18.595 8.60714 18.595 8.22805C18.595 7.84895 18.901 7.5415 19.2786 7.5415Z" fill="#FF0000"/>
</g>
<defs>
<clipPath id="clip0_103_2193">
<rect width="42" height="15" fill="white"/>
</clipPath>
</defs>
</svg>
