<svg width="50" height="32" viewBox="0 0 50 32" fill="none" xmlns="http://www.w3.org/2000/svg">
<rect width="50" height="32" rx="4" fill="white"/>
<path fill-rule="evenodd" clip-rule="evenodd" d="M18.2359 9.38634H23.6397L23.6429 11.5885L22.3127 11.5861L25.4664 19.1873L28.5677 11.5933H27.1995V9.39277L31.5234 9.39036L31.517 10.6452L26.3135 23C25.0578 23.0032 24.2407 22.5404 23.8029 21.5721L19.517 11.5933L18.2352 11.5909L18.2359 9.38634ZM10.8036 9C14.5614 9 17.6073 12.1181 17.6073 15.9638C17.6073 19.8095 14.5614 22.9267 10.8036 22.9267C7.04592 22.9267 4 19.8095 4 15.9638C4 12.1181 7.04592 9 10.8036 9ZM10.7831 11.2786C13.1528 11.2786 15.0736 13.3994 15.0736 16.0153C15.0736 18.6319 13.1528 20.752 10.7831 20.752C8.41251 20.752 6.49169 18.6319 6.49169 16.0153C6.49169 13.3994 8.41251 11.2786 10.7831 11.2786ZM39.1964 9C42.9541 9 46 12.1181 46 15.9638C46 19.8095 42.9541 22.9267 39.1964 22.9267C35.4386 22.9267 32.3927 19.8095 32.3927 15.9638C32.3927 12.1181 35.4386 9 39.1964 9ZM39.1758 11.2786C41.5455 11.2786 43.4664 13.3994 43.4664 16.0153C43.4664 18.6319 41.5455 20.752 39.1758 20.752C36.8052 20.752 34.8844 18.6319 34.8844 16.0153C34.8844 13.3994 36.8052 11.2786 39.1758 11.2786Z" fill="#4C3494"/>
</svg>
