<svg width="42" height="13" viewBox="0 0 42 13" fill="none" xmlns="http://www.w3.org/2000/svg">
<path fill-rule="evenodd" clip-rule="evenodd" d="M9.23681 2.70159C9.22903 2.69353 9.22281 2.68313 9.21425 2.67429L7.00908 0.4621C6.87634 0.328714 6.66142 0.328714 6.52921 0.4621C6.39543 0.595487 6.39543 0.811557 6.52921 0.943383L7.46873 1.88827V2.48994H6.78897V3.17143H8.44895C8.94904 3.17143 9.35658 3.57913 9.35658 4.08251V8.3878C9.35658 8.5373 9.31977 8.67641 9.25547 8.80174L3.47317 3.00138C3.34043 2.86825 3.12578 2.86825 2.99278 3.00138C2.85953 3.13425 2.85953 3.3498 2.99278 3.48292L8.74242 9.24948C8.64987 9.28094 8.55135 9.29888 8.44921 9.29888H4.15603C3.65542 9.29888 3.24711 8.88962 3.24711 8.3878V6.80952H2.56787V8.49726C2.56787 8.52846 2.57332 8.55914 2.58187 8.58983C2.59172 8.66471 2.6065 8.73907 2.6275 8.8111L2.65368 9.13559L2.91708 9.38416C2.91838 9.38546 2.92045 9.38676 2.92227 9.38884C3.21392 9.74948 3.65802 9.98037 4.15629 9.98037H8.44869C8.85312 9.98037 9.22177 9.82619 9.50254 9.57449C9.51057 9.56747 9.51965 9.56201 9.52691 9.55447L9.53313 9.54589C9.84216 9.25546 10.0366 8.84412 10.0366 8.3878V4.08251C10.0366 3.49228 9.71253 2.97746 9.23629 2.70185" fill="#FFB003"/>
<path fill-rule="evenodd" clip-rule="evenodd" d="M6.78923 2.48988H4.15629C3.81875 2.48988 3.50687 2.59648 3.24969 2.77719L1.23299 0.754296C1.34291 0.708013 1.46269 0.681492 1.58868 0.681492H5.88108C6.38195 0.681492 6.78923 1.09049 6.78923 1.59258V2.48988ZM6.78923 5.89786C6.78923 6.4002 6.38195 6.8092 5.88108 6.8092H3.24736V4.08245C3.24736 3.85364 3.33343 3.64433 3.47187 3.48364L3.47343 3.48286C3.47343 3.48234 3.4742 3.48234 3.4742 3.48078C3.64168 3.2915 3.88382 3.17137 4.15629 3.17137H6.78923V5.89786ZM2.56787 4.08245V6.8092H1.58868C1.08781 6.8092 0.681049 6.4002 0.681049 5.89786V1.59258C0.681049 1.46673 0.706455 1.34556 0.752861 1.23636L2.78745 3.27745C2.64901 3.51303 2.56787 3.78812 2.56787 4.08245ZM5.88108 0H1.58868C1.18036 0 0.809896 0.156787 0.527832 0.41212C0.504759 0.42564 0.481686 0.441501 0.460687 0.462302C0.440724 0.483103 0.424392 0.505204 0.410392 0.529645C0.157105 0.812018 0 1.18436 0 1.59258V5.89786C0 6.30764 0.157105 6.67972 0.410392 6.96235C0.426984 6.98913 0.443576 7.01305 0.467168 7.03515L2.68246 9.16465V9.16127C2.74286 9.21484 2.8209 9.24786 2.908 9.24786C3.09518 9.24786 3.24762 9.09653 3.24762 8.90802V7.49095H5.88108C6.75656 7.49095 7.46898 6.77592 7.46898 5.89786V1.59258C7.46898 0.714514 6.75656 0 5.88108 0Z" fill="#FF434F"/>
<path fill-rule="evenodd" clip-rule="evenodd" d="M14.1703 11.7884C14.3969 11.7884 14.5382 11.6613 14.5382 11.4829V11.478C14.5382 11.2778 14.3943 11.1727 14.1703 11.1727H13.8219V11.7884H14.1703ZM13.5222 10.8992H14.1947C14.594 10.8992 14.8428 11.1262 14.8428 11.4707V11.4759C14.8428 11.8592 14.5356 12.0596 14.1605 12.0596H13.8219V12.6093H13.5225V10.8992H13.5222ZM15.8876 12.1452V12.057C15.8122 12.0277 15.7124 12.0058 15.5954 12.0058C15.4054 12.0058 15.2932 12.0864 15.2932 12.2208V12.2258C15.2932 12.3503 15.4028 12.4211 15.5441 12.4211C15.7391 12.4211 15.8876 12.3087 15.8876 12.1452ZM15.0059 12.2377V12.2331C15.0059 11.9546 15.2226 11.8176 15.5368 11.8176C15.6805 11.8176 15.7831 11.8397 15.8827 11.8714V11.8397C15.8827 11.6564 15.7707 11.5589 15.5638 11.5589C15.4199 11.5589 15.3129 11.5906 15.1957 11.6395L15.1179 11.4073C15.2592 11.3438 15.3979 11.3022 15.6027 11.3022C15.7951 11.3022 15.9387 11.3534 16.0289 11.4463C16.1238 11.5391 16.1676 11.6759 16.1676 11.8446V12.609H15.8804V12.4478C15.7927 12.5531 15.6587 12.6361 15.4614 12.6361C15.2203 12.6361 15.0059 12.4967 15.0059 12.2377ZM16.521 10.8259H16.8157V11.8909L17.3493 11.3194H17.7073L17.1958 11.8446L17.7241 12.6093H17.3783L16.9985 12.0498L16.8157 12.2403V12.6093H16.521V10.8259ZM18.7619 11.874C18.7425 11.6834 18.6305 11.5344 18.4353 11.5344C18.2553 11.5344 18.1286 11.6735 18.1019 11.874H18.7619ZM17.8094 11.9692V11.9642C17.8094 11.5953 18.0702 11.2923 18.4378 11.2923C18.8472 11.2923 19.0541 11.6148 19.0541 11.9863C19.0541 12.0131 19.0518 12.0399 19.0494 12.0695H18.1042C18.1358 12.2794 18.2844 12.3966 18.4744 12.3966C18.6183 12.3966 18.7207 12.3431 18.8228 12.2427L18.9958 12.3966C18.8739 12.5433 18.7059 12.6384 18.4695 12.6384C18.0969 12.6384 17.8094 12.3675 17.8094 11.9692ZM19.4124 12.2526V11.5734H19.249V11.3194H19.4124V10.965H19.7071V11.3194H20.053V11.5734H19.7071V12.206C19.7071 12.321 19.7655 12.3672 19.8653 12.3672C19.9311 12.3672 19.9897 12.3527 20.048 12.3233V12.5651C19.9749 12.6067 19.8946 12.6311 19.7826 12.6311C19.5656 12.6311 19.4124 12.536 19.4124 12.2526ZM20.3524 11.3194H20.6472V11.5147C20.7301 11.4 20.8421 11.2923 21.0394 11.2923C21.2245 11.2923 21.356 11.3828 21.4244 11.5196C21.5265 11.3828 21.6629 11.2923 21.8579 11.2923C22.1379 11.2923 22.3084 11.4707 22.3084 11.7858V12.6093H22.0137V11.8763C22.0137 11.6709 21.9188 11.5612 21.7531 11.5612C21.5924 11.5612 21.4778 11.6735 21.4778 11.881V12.609H21.1833V11.8743C21.1833 11.674 21.0858 11.5615 20.9228 11.5615C20.7594 11.5615 20.6474 11.6837 20.6474 11.8813V12.6093H20.3527V11.3196L20.3524 11.3194ZM22.652 12.1402V11.3194H22.9467V12.0524C22.9467 12.2526 23.0465 12.3649 23.222 12.3649C23.3926 12.3649 23.5119 12.2479 23.5119 12.0474V11.3194H23.809V12.609H23.5119V12.4088C23.4289 12.531 23.3097 12.6361 23.11 12.6361C22.8199 12.6361 22.652 12.4406 22.652 12.1402ZM24.8273 12.36L25.0075 12.1452C25.1708 12.2869 25.3362 12.3675 25.5457 12.3675C25.7308 12.3675 25.8477 12.2794 25.8477 12.1525V12.1475C25.8477 12.0253 25.7795 11.9593 25.463 11.886C25.1 11.7981 24.8952 11.6907 24.8952 11.3755V11.3706C24.8952 11.0776 25.1389 10.8748 25.4775 10.8748C25.7259 10.8748 25.9234 10.9504 26.0963 11.0895L25.9356 11.3168C25.7821 11.2021 25.6287 11.141 25.4726 11.141C25.2973 11.141 25.1952 11.2315 25.1952 11.3438V11.3488C25.1952 11.4806 25.273 11.5391 25.6017 11.6174C25.9621 11.7052 26.1474 11.8347 26.1474 12.1181V12.1231C26.1474 12.4429 25.8965 12.6337 25.5384 12.6337C25.2779 12.6337 25.0319 12.5433 24.8273 12.36ZM27.3483 11.874C27.3288 11.6834 27.2168 11.5344 27.0219 11.5344C26.8417 11.5344 26.7149 11.6735 26.6882 11.874H27.3483ZM26.3958 11.9692V11.9642C26.3958 11.5953 26.6566 11.2923 27.0245 11.2923C27.4336 11.2923 27.6407 11.6148 27.6407 11.9863C27.6407 12.0131 27.6381 12.0399 27.6358 12.0695H26.6905C26.7222 12.2794 26.871 12.3966 27.0608 12.3966C27.2046 12.3966 27.307 12.3431 27.4092 12.2427L27.5821 12.3966C27.4603 12.5433 27.2923 12.6384 27.0558 12.6384C26.6833 12.6384 26.3958 12.3675 26.3958 11.9692ZM27.9378 10.8259H28.2326V11.5173C28.3155 11.3976 28.4348 11.2923 28.6344 11.2923C28.9242 11.2923 29.0922 11.4879 29.0922 11.7858V12.6093H28.7977V11.8763C28.7977 11.6761 28.6977 11.5612 28.5224 11.5612C28.3518 11.5612 28.2326 11.6808 28.2326 11.881V12.609H27.9378V10.8259ZM30.2446 12.1452V12.057C30.1689 12.0277 30.0691 12.0058 29.9522 12.0058C29.7621 12.0058 29.6501 12.0864 29.6501 12.2208V12.2258C29.6501 12.3503 29.7598 12.4211 29.9011 12.4211C30.096 12.4211 30.2446 12.3087 30.2446 12.1452ZM29.3629 12.2377V12.2331C29.3629 11.9546 29.5796 11.8176 29.8938 11.8176C30.0375 11.8176 30.1399 11.8397 30.2397 11.8714V11.8397C30.2397 11.6564 30.1277 11.5589 29.9208 11.5589C29.7769 11.5589 29.6696 11.5906 29.5527 11.6395L29.4749 11.4073C29.6162 11.3438 29.7549 11.3022 29.9597 11.3022C30.152 11.3022 30.2957 11.3534 30.3859 11.4463C30.4808 11.5391 30.5246 11.6759 30.5246 11.8446V12.609H30.2373V12.4478C30.1495 12.5531 30.0157 12.6361 29.8184 12.6361C29.5773 12.6361 29.3629 12.4967 29.3629 12.2377ZM30.8779 11.3194H31.1727V11.6101C31.2531 11.4171 31.4016 11.2851 31.6282 11.2949V11.6075H31.6111C31.3529 11.6075 31.1727 11.7762 31.1727 12.1181V12.6093H30.8779V11.3194ZM31.9007 12.6093H32.1957V11.3194H31.9009V12.609L31.9007 12.6093ZM31.8888 11.1215H32.2053V10.8407H31.8888V11.1215ZM33.2306 12.36L33.4111 12.1452C33.5744 12.2869 33.7398 12.3675 33.9493 12.3675C34.1346 12.3675 34.2516 12.2794 34.2516 12.1525V12.1475C34.2516 12.0253 34.1834 11.9593 33.8666 11.886C33.5036 11.7981 33.2988 11.6907 33.2988 11.3755V11.3706C33.2988 11.0776 33.5425 10.8748 33.8811 10.8748C34.1297 10.8748 34.327 10.9504 34.4999 11.0895L34.3392 11.3168C34.1857 11.2021 34.0322 11.141 33.8764 11.141C33.7009 11.141 33.5988 11.2315 33.5988 11.3438V11.3488C33.5988 11.4806 33.6765 11.5391 34.0055 11.6174C34.3659 11.7052 34.551 11.8347 34.551 12.1181V12.1231C34.551 12.4429 34.3003 12.6337 33.942 12.6337C33.6815 12.6337 33.4354 12.5433 33.2309 12.36M35.6668 12.1452V12.057C35.5911 12.0277 35.4913 12.0058 35.3744 12.0058C35.1843 12.0058 35.0723 12.0864 35.0723 12.2208V12.2258C35.0723 12.3503 35.182 12.4211 35.3233 12.4211C35.518 12.4211 35.6668 12.3087 35.6668 12.1452ZM34.7848 12.2377V12.2331C34.7848 11.9546 35.0018 11.8176 35.316 11.8176C35.4597 11.8176 35.5621 11.8397 35.6619 11.8714V11.8397C35.6619 11.6564 35.5499 11.5589 35.3427 11.5589C35.1991 11.5589 35.0918 11.5906 34.9749 11.6395L34.8971 11.4073C35.0384 11.3438 35.1771 11.3022 35.3819 11.3022C35.5742 11.3022 35.7179 11.3534 35.8081 11.4463C35.903 11.5391 35.9468 11.6759 35.9468 11.8446V12.609H35.6593V12.4478C35.5717 12.5531 35.4376 12.6361 35.2406 12.6361C34.9995 12.6361 34.7848 12.4967 34.7848 12.2377ZM36.3001 11.3194H36.5949V11.5147C36.6776 11.4 36.7896 11.2923 36.9869 11.2923C37.172 11.2923 37.3037 11.3828 37.3719 11.5196C37.474 11.3828 37.6104 11.2923 37.8054 11.2923C38.0853 11.2923 38.2562 11.4707 38.2562 11.7858V12.6093H37.9614V11.8763C37.9614 11.6709 37.8663 11.5612 37.7006 11.5612C37.5399 11.5612 37.4253 11.6735 37.4253 11.881V12.609H37.1308V11.8743C37.1308 11.674 37.0333 11.5615 36.87 11.5615C36.7067 11.5615 36.5949 11.6837 36.5949 11.8813V12.6093H36.3001V11.3196V11.3194ZM39.6445 11.9668V11.9616C39.6445 11.7128 39.4765 11.549 39.2766 11.549C39.077 11.549 38.9015 11.7151 38.9015 11.9619V11.9668C38.9015 12.2136 39.077 12.3797 39.2766 12.3797C39.4788 12.3797 39.6445 12.2208 39.6445 11.9668ZM38.6142 11.3194H38.909V11.5342C39.0039 11.4 39.1379 11.2923 39.3471 11.2923C39.6494 11.2923 39.9442 11.5318 39.9442 11.9619V11.9668C39.9442 12.3943 39.6517 12.6361 39.3474 12.6361C39.133 12.6361 38.9989 12.5287 38.909 12.4088V13.0001H38.6142V11.3194ZM41.0452 12.1452V12.057C40.9695 12.0277 40.8697 12.0058 40.7528 12.0058C40.5627 12.0058 40.4507 12.0864 40.4507 12.2208V12.2258C40.4507 12.3503 40.5604 12.4211 40.7017 12.4211C40.8964 12.4211 41.0452 12.3087 41.0452 12.1452ZM40.1632 12.2377V12.2331C40.1632 11.9546 40.3802 11.8176 40.6944 11.8176C40.8381 11.8176 40.9405 11.8397 41.0403 11.8714V11.8397C41.0403 11.6564 40.9283 11.5589 40.7211 11.5589C40.5775 11.5589 40.4702 11.5906 40.3533 11.6395L40.2755 11.4073C40.4168 11.3438 40.5555 11.3022 40.7603 11.3022C40.9526 11.3022 41.0963 11.3534 41.1865 11.4463C41.2814 11.5391 41.3252 11.6759 41.3252 11.8446V12.609H41.0377V12.4478C40.9501 12.5531 40.816 12.6361 40.6187 12.6361C40.3776 12.6361 40.1632 12.4967 40.1632 12.2377ZM41.6954 12.6093H41.9902V11.3194H41.6954V12.609V12.6093ZM41.6832 11.1215H42V10.8407H41.6832V11.1215ZM16.1147 4.28189C16.1147 3.75043 15.8021 3.43685 15.2623 3.43685C14.9756 3.43685 14.6979 3.47221 14.419 3.54138V6.0713C14.6627 6.27125 14.9504 6.37603 15.2623 6.37603C15.8021 6.37603 16.1147 6.0713 16.1147 5.52995V4.28189ZM13.5233 3.36665C13.5233 3.1225 13.6796 2.90461 13.9064 2.83466C14.3409 2.69504 14.7931 2.60845 15.2623 2.60845C15.7751 2.60845 16.2104 2.77408 16.5241 3.09727C16.8365 3.41085 17.0102 3.84611 17.0102 4.35235V5.45091C17.0102 5.96573 16.8455 6.41971 16.5324 6.73329C16.2192 7.05596 15.8371 7.20495 15.3237 7.20495C15.037 7.20495 14.6886 7.10016 14.419 6.97822V8.6098C14.419 8.86305 14.2193 9.063 13.9764 9.063C13.7231 9.063 13.5233 8.86279 13.5233 8.6098V3.36691V3.36665ZM20.3506 5.22444H19.4551C18.6976 5.22444 18.6548 5.63422 18.6548 5.78346C18.6548 5.93999 18.6976 6.37603 19.4551 6.37603C19.7507 6.37603 20.0716 6.33235 20.3506 6.26215V5.2247V5.22444ZM21.2463 6.44623C21.2463 6.68961 21.0892 6.89892 20.8634 6.97822C20.4372 7.12643 19.942 7.20495 19.4551 7.20495C18.9245 7.20495 18.5063 7.07494 18.2107 6.82091C17.9157 6.56766 17.7591 6.21092 17.7591 5.78346C17.7591 5.35548 17.9157 5.02475 18.211 4.78007C18.5066 4.52786 18.9245 4.3963 19.4554 4.3963H20.3506V4.09104C20.3506 3.72442 20.0807 3.43711 19.6286 3.43711C19.2197 3.43711 18.9937 3.48859 18.6891 3.67216C18.6204 3.7161 18.5242 3.75043 18.4454 3.75043C18.211 3.75043 18.0197 3.57596 18.0197 3.35911C18.0197 3.2018 18.0897 3.04449 18.2374 2.95713C18.7072 2.68672 19.115 2.60845 19.7414 2.60845C20.7154 2.60845 21.2463 3.31491 21.2463 4.09104V6.44623ZM23.6985 5.65164L22.7761 7.01254C22.6898 7.13501 22.5508 7.20495 22.4119 7.20495C22.1775 7.20495 21.96 7.00448 21.96 6.75149C21.96 6.66438 21.9852 6.57702 22.0378 6.49824L23.1767 4.88486L22.0632 3.31517C22.0119 3.23612 21.9852 3.1498 21.9852 3.06165C21.9852 2.82634 22.1856 2.60845 22.4376 2.60845C22.5768 2.60845 22.7168 2.67866 22.8026 2.80008L23.6985 4.11782L24.5942 2.80008C24.6816 2.66929 24.8294 2.60845 24.9686 2.60845C25.2118 2.60845 25.4119 2.80918 25.4119 3.06165C25.4119 3.1498 25.3857 3.23586 25.3334 3.31517L24.2202 4.88486L25.3598 6.49824C25.4205 6.57702 25.4467 6.66438 25.4467 6.75149C25.4467 6.99486 25.238 7.20521 24.986 7.20521C24.8468 7.20521 24.7075 7.14437 24.621 7.0128L23.6985 5.65164ZM28.6292 4.50056C28.6292 3.77747 28.3337 3.43711 27.7776 3.43711C27.2293 3.43711 26.9345 3.76785 26.9345 4.50056H28.6292ZM26.9345 5.33C26.9345 5.68752 26.9941 5.92283 27.1079 6.07936C27.2554 6.27125 27.4813 6.37577 27.7776 6.37577C28.1079 6.37577 28.4213 6.27957 28.7166 6.14956C28.7772 6.12356 28.8376 6.10536 28.8991 6.10536C29.1163 6.10536 29.325 6.28919 29.325 6.51618C29.325 6.6805 29.2556 6.82897 29.0985 6.90802C28.6818 7.109 28.239 7.20495 27.7776 7.20495C27.272 7.20495 26.8383 7.03958 26.5155 6.71639C26.2032 6.40125 26.0375 5.96599 26.0375 5.45091V4.35209C26.0375 3.84611 26.2032 3.41085 26.5155 3.09701C26.8383 2.77408 27.272 2.60819 27.7776 2.60819C28.2899 2.60819 28.7257 2.77408 29.0383 3.09701C29.351 3.41059 29.5249 3.84585 29.5249 4.35209V4.76291C29.5249 5.07701 29.2729 5.32974 28.9603 5.32974H26.9345V5.33ZM30.5083 1.36897C30.5083 1.11624 30.7084 0.915771 30.9606 0.915771C31.2038 0.915771 31.404 1.11598 31.404 1.36897V6.75123C31.404 7.00422 31.2038 7.20495 30.9606 7.20495C30.7084 7.20495 30.5083 7.00422 30.5083 6.75123V1.36897Z" fill="#5F52A4"/>
</svg>
