<svg width="42" height="11" viewBox="0 0 42 11" fill="none" xmlns="http://www.w3.org/2000/svg">
<path d="M6.10492 0.00882342C6.52022 -0.00166719 6.93676 -0.00845523 7.35145 0.0223995C8.14133 0.140265 8.88925 0.510521 9.46932 1.0585C10.1882 1.75705 10.6165 2.74255 10.6393 3.7441C10.6689 4.80612 10.2518 5.8848 9.47302 6.61482C8.79977 7.28437 7.87289 7.68054 6.92504 7.71078C5.90683 7.72621 4.88924 7.71263 3.87165 7.72991C3.66863 8.37169 3.50139 9.02396 3.29467 9.6645C3.15767 10.0878 2.78927 10.4081 2.37705 10.5531C2.08393 10.629 1.77785 10.6093 1.47856 10.6185C0.9855 10.6179 0.492441 10.634 0 10.6136C0.185128 9.97799 0.370874 9.34238 0.57143 8.71171C0.739896 8.14213 1.31194 7.71695 1.90682 7.72559C2.56465 7.71387 3.22247 7.72498 3.88029 7.71448C3.93151 7.4553 4.01297 7.20415 4.08763 6.95114C4.7652 4.63888 5.45635 2.32972 6.10492 0.00882342Z" fill="#FB4C0F"/>
<path fill-rule="evenodd" clip-rule="evenodd" d="M15.8901 2.34073C15.1218 2.29753 14.3492 2.2926 13.5822 2.3469C13.5831 2.42608 13.5837 2.50525 13.5843 2.58439C13.5852 2.70324 13.5861 2.822 13.5883 2.94055C13.588 3.00226 13.5876 3.06396 13.5871 3.12567L13.5871 3.12567C13.5866 3.18738 13.5862 3.24909 13.5859 3.3108C13.5829 4.32757 13.5825 5.34463 13.5822 6.36158C13.5821 6.81358 13.5819 7.26556 13.5815 7.71748C13.8523 7.71933 14.1233 7.7191 14.3942 7.71886H14.3943L14.6652 7.71871C14.6654 7.5362 14.6654 7.3537 14.6653 7.17119V7.17094C14.6653 6.86664 14.6652 6.56235 14.6664 6.25805C14.7883 6.25583 14.9102 6.25446 15.0322 6.25308L15.0323 6.25308H15.0323H15.0323H15.0323H15.0323H15.0323H15.0323C15.3507 6.24951 15.6693 6.24593 15.987 6.22719C16.7793 6.18276 17.4766 5.56752 17.6828 4.81096C17.8932 4.09822 17.6488 3.27131 17.0799 2.79183C16.746 2.51845 16.3214 2.35369 15.8901 2.34073ZM14.6653 4.41011V4.40995C14.6652 4.03146 14.6651 3.65294 14.6658 3.27462C14.8092 3.28085 14.9542 3.27769 15.0993 3.27452C15.4145 3.26765 15.7306 3.26076 16.0339 3.34991C16.3196 3.42766 16.5122 3.66833 16.6448 3.91887C16.647 3.95538 16.6495 3.99201 16.652 4.02871L16.652 4.02872L16.652 4.02874L16.652 4.02875L16.652 4.02875L16.652 4.02876L16.652 4.02877C16.6653 4.22532 16.6788 4.424 16.6393 4.61742C16.5109 4.98089 16.1524 5.27154 15.7568 5.25673C15.4912 5.26259 15.2253 5.26219 14.9593 5.26179H14.9593H14.9591H14.9589H14.9587H14.9585H14.9582H14.958C14.8604 5.26165 14.7628 5.2615 14.6652 5.26166C14.6655 4.97791 14.6654 4.69405 14.6653 4.41017V4.41016V4.41015V4.41014V4.41013V4.41012V4.41011ZM27.9401 2.34018C28.0734 2.33553 28.2069 2.33593 28.3405 2.33633C28.5435 2.33694 28.7466 2.33755 28.9491 2.32043C28.9663 2.6472 28.9682 2.97457 28.9701 3.30191V3.30192V3.30193V3.30194V3.30195V3.30196C28.9709 3.44318 28.9717 3.5844 28.9738 3.72556C29.1429 3.72525 29.312 3.72525 29.4811 3.72525C29.6503 3.72525 29.8195 3.72525 29.9889 3.72494C29.994 4.00859 29.9928 4.29223 29.9917 4.57588L29.9914 4.64688C29.7647 4.64647 29.538 4.64661 29.3113 4.64674L28.9713 4.64688C28.9734 4.89888 28.9749 5.15099 28.9764 5.40311V5.40326C28.9785 5.75614 28.9807 6.10905 28.9843 6.46176C28.975 6.6475 29.1497 6.8172 29.3323 6.81844C29.4319 6.83548 29.5237 6.80439 29.6155 6.77328C29.6732 6.7537 29.731 6.73412 29.7908 6.72649C29.8322 6.81667 29.889 6.90336 29.946 6.99036C30.0633 7.16949 30.1816 7.34997 30.1679 7.56512C29.6507 7.80826 29.0114 7.90082 28.4962 7.60708C28.1666 7.42751 28.0148 7.0517 27.9759 6.69564C27.9294 6.24143 27.9332 5.78448 27.937 5.32771C27.9389 5.1006 27.9407 4.87354 27.9364 4.64688H27.2157L27.2155 4.41633V4.4163V4.41627V4.41625V4.41622V4.41619C27.2153 4.1858 27.2151 3.95551 27.2169 3.72556C27.457 3.72556 27.6964 3.72556 27.9364 3.72494C27.9364 3.5491 27.9379 3.37326 27.9393 3.19742C27.9416 2.91167 27.944 2.62593 27.9401 2.34018ZM18.9385 3.96061C19.3841 3.65823 19.966 3.56937 20.4837 3.715C20.7664 3.79399 20.9916 3.99085 21.2039 4.18523C21.2054 4.10868 21.2065 4.03213 21.2076 3.95565L21.2076 3.95559L21.2076 3.95553L21.2076 3.95547L21.2076 3.95541L21.2076 3.95535L21.2076 3.95518L21.2076 3.95501L21.2076 3.95484L21.2076 3.95466L21.2076 3.95449C21.2087 3.87785 21.2097 3.80129 21.2113 3.72488C21.2956 3.72488 21.38 3.72503 21.4645 3.72519C21.7179 3.72565 21.9715 3.72611 22.2252 3.72241C22.2519 4.54597 22.2479 5.37048 22.2439 6.19506V6.19508V6.19511V6.19514V6.19516V6.19519V6.19537C22.2415 6.70278 22.239 7.21022 22.2437 7.71748C21.985 7.71933 21.7264 7.7191 21.4677 7.71887H21.4676L21.2088 7.71871L21.2082 7.6408C21.2073 7.51018 21.2064 7.37986 21.2033 7.2491C20.9515 7.48237 20.667 7.68231 20.3313 7.7724C20.2964 7.77377 20.2614 7.77538 20.2263 7.77698C19.9455 7.78982 19.658 7.80297 19.3915 7.70205C18.8885 7.53914 18.4732 7.1516 18.2573 6.67089C17.8364 5.76067 18.0752 4.52895 18.9385 3.96061ZM19.5414 4.81132C19.2594 4.99768 19.0952 5.32659 19.0675 5.65797C19.0422 6.07883 19.2822 6.49598 19.6519 6.69469C19.8907 6.83971 20.1838 6.83971 20.4516 6.79898C20.8749 6.69839 21.1761 6.32135 21.2674 5.90728C21.267 5.82257 21.2671 5.73787 21.2673 5.65299L21.2674 5.52529L21.2636 5.51389C21.192 5.29754 21.1162 5.06897 20.9416 4.9119C20.5781 4.55214 19.9542 4.51573 19.5414 4.81132ZM32.2881 3.73796C32.664 3.5948 33.086 3.65219 33.4538 3.79289C33.3964 3.97141 33.3319 4.14743 33.2674 4.32338L33.2674 4.32343L33.2674 4.32348L33.2673 4.32351C33.2079 4.48567 33.1485 4.64777 33.0947 4.81171C32.8188 4.68335 32.498 4.65867 32.2061 4.74074C31.9179 4.82158 31.7186 5.10977 31.7155 5.40474C31.7019 5.96934 31.6993 6.53427 31.6967 7.09904V7.09915V7.09927V7.09938L31.6966 7.10148C31.6957 7.30627 31.6947 7.51103 31.6933 7.71576C31.352 7.72069 31.0108 7.72008 30.6701 7.71699C30.6692 7.21764 30.6698 6.71837 30.6703 6.21912V6.2191V6.21907V6.21905C30.6712 5.39679 30.6722 4.57459 30.6664 3.75216C31.0077 3.71205 31.3582 3.70279 31.6988 3.75771C31.6957 3.93235 31.6982 4.10699 31.7025 4.28101C31.8327 4.04343 32.0259 3.82868 32.2881 3.73796ZM34.2247 4.12813C34.8652 3.56719 35.8507 3.50363 36.5943 3.88932C37.0966 4.1559 37.4681 4.65328 37.5829 5.2099C37.6301 5.43252 37.6312 5.66015 37.6323 5.887C37.6326 5.94752 37.6329 6.00798 37.6341 6.06828C36.5789 6.07445 35.5236 6.07815 34.4684 6.08124C34.5758 6.45705 34.8745 6.78719 35.2645 6.8705C35.5983 6.94455 35.9791 6.93406 36.2666 6.7298C36.3637 6.65877 36.4478 6.57306 36.5318 6.48739C36.5595 6.4592 36.5872 6.43102 36.6153 6.40336C36.8979 6.54591 37.167 6.71314 37.4317 6.88593C37.1077 7.33085 36.6239 7.68013 36.071 7.76159C35.7569 7.79429 35.4397 7.78319 35.125 7.77023C34.229 7.59312 33.473 6.773 33.5039 5.8381C33.436 5.19201 33.7279 4.53912 34.2247 4.12813ZM34.9738 4.68405C34.7517 4.80994 34.6073 5.02839 34.511 5.25795C35.2126 5.26474 35.9143 5.26474 36.6159 5.25795C36.5351 5.01667 36.3876 4.78896 36.1605 4.66245C35.7958 4.47239 35.3317 4.48103 34.9738 4.68405ZM40.0864 3.68422C40.5362 3.59844 41.0453 3.64596 41.4131 3.9434C41.7562 4.21924 41.9778 4.65614 41.9691 5.09984C41.9963 5.67363 41.9963 6.24823 41.9962 6.82293C41.9962 7.12155 41.9962 7.42021 42 7.71878C41.6513 7.71878 41.3027 7.71878 40.954 7.7194C40.95 7.51191 40.9509 7.30434 40.9518 7.09682C40.9536 6.70014 40.9553 6.30365 40.9225 5.90823C40.915 5.79251 40.9173 5.67624 40.9195 5.56002V5.55999V5.55996C40.9226 5.39856 40.9257 5.23726 40.9028 5.07762C40.8182 4.86225 40.6541 4.65368 40.4245 4.58703C40.1579 4.55556 39.8512 4.52902 39.6359 4.72279C39.4477 4.84991 39.3656 5.06651 39.3094 5.27632C39.3011 5.88723 39.3011 6.49779 39.3011 7.10826C39.3011 7.31177 39.3011 7.51528 39.3008 7.71878H38.2524C38.2526 7.27505 38.2523 6.83132 38.252 6.38757V6.38753V6.38625C38.2515 5.4993 38.2509 4.61226 38.2542 3.72495C38.3829 3.72518 38.5116 3.72515 38.6404 3.72512C38.8551 3.72507 39.0699 3.72503 39.2848 3.72618L39.2848 3.72701C39.2866 3.87977 39.2885 4.03315 39.2934 4.18592C39.5168 3.96376 39.7655 3.74223 40.0864 3.68422ZM23.9895 3.72497C23.6408 3.72559 23.2928 3.72559 22.9447 3.72497C22.9398 4.53337 22.9392 5.34176 22.9509 6.14954C22.9583 6.59446 23.0626 7.07456 23.3989 7.39051C23.7655 7.76879 24.3381 7.83667 24.8361 7.76262C25.1651 7.70523 25.4248 7.4837 25.6526 7.25352C25.6766 7.61946 25.5767 8.02304 25.2804 8.26309C24.8182 8.62841 24.0882 8.58027 23.6655 8.17422C23.6398 8.1575 23.616 8.13449 23.592 8.11129C23.5416 8.06258 23.4904 8.01306 23.4193 8.01933C23.2508 8.13606 23.0902 8.26397 22.9298 8.39182C22.8264 8.47418 22.7231 8.55651 22.6177 8.63581C22.7985 8.81847 22.9904 8.99496 23.2157 9.12208C23.9778 9.51764 24.9559 9.5559 25.7161 9.13442C26.2838 8.80489 26.6677 8.16867 26.6615 7.50776C26.6788 6.24704 26.6893 4.98631 26.6911 3.72621C26.5613 3.72551 26.4316 3.7256 26.3019 3.72569C26.0857 3.72583 25.8698 3.72597 25.6538 3.7225L25.652 3.73189C25.6174 3.91793 25.5809 4.11375 25.647 4.29764C25.6211 4.37724 25.6087 4.45931 25.6112 4.54324C25.6106 5.08011 25.61 5.61637 25.6013 6.15262C25.6118 6.36984 25.4755 6.5599 25.3236 6.7006C25.1262 6.88882 24.8312 6.89499 24.577 6.86228C24.2481 6.79872 24.0179 6.47536 24.0136 6.1483C23.988 5.64158 23.9899 5.13438 23.9918 4.62715C23.9929 4.3264 23.9941 4.02564 23.9895 3.72497Z" fill="#2E4251"/>
</svg>
