<svg width="37" height="25" viewBox="0 0 37 25" fill="none" xmlns="http://www.w3.org/2000/svg">
<g clip-path="url(#clip0_14_7015)">
<path d="M33.6419 24.8729L34.724 21.7965H35.9394L36.998 24.8729H35.8218L35.7277 24.4833H34.9043L34.8102 24.8729H33.6419ZM35.0847 23.752H35.5395L35.4454 23.4023C35.3984 23.2274 35.367 23.0922 35.3513 22.9969C35.3356 22.9015 35.3278 22.814 35.3199 22.7266H35.3043C35.2964 22.814 35.2886 22.9015 35.2729 22.9969C35.2572 23.0922 35.2258 23.2274 35.1788 23.4023L35.0847 23.752ZM32.3323 24.8729V21.7965H33.4458V24.8729H32.3323ZM29.4702 24.531L29.8152 23.6725C29.972 23.7838 30.1132 23.8633 30.2308 23.911C30.3563 23.9587 30.466 23.9905 30.5758 23.9905C30.6542 23.9905 30.7091 23.9746 30.7483 23.9508C30.7954 23.919 30.8111 23.8872 30.8111 23.8315C30.8111 23.7441 30.7013 23.6805 30.4896 23.6328C30.419 23.6169 30.3641 23.6089 30.3249 23.593C30.0975 23.5374 29.925 23.4341 29.8074 23.291C29.6897 23.1479 29.627 22.973 29.627 22.7584C29.627 22.4245 29.7446 22.1622 29.9799 21.9555C30.2151 21.7488 30.5209 21.6455 30.8973 21.6455C31.0698 21.6455 31.2424 21.6694 31.4149 21.717C31.5795 21.7647 31.7521 21.8363 31.9246 21.9237L31.5952 22.7266C31.4933 22.6471 31.3835 22.5915 31.2816 22.5438C31.1796 22.504 31.0698 22.4802 30.9757 22.4802C30.8973 22.4802 30.8424 22.4961 30.8032 22.5199C30.764 22.5438 30.7405 22.5835 30.7405 22.6312C30.7405 22.7186 30.8895 22.7981 31.1953 22.8617C31.2424 22.8697 31.2816 22.8856 31.3051 22.8856C31.5168 22.9333 31.6815 23.0287 31.7991 23.1797C31.9167 23.3228 31.9795 23.5056 31.9795 23.7123C31.9795 24.0541 31.8618 24.3323 31.6187 24.5469C31.3757 24.7616 31.062 24.8729 30.6699 24.8729C30.4739 24.8729 30.27 24.8411 30.074 24.7854C29.8779 24.7298 29.6741 24.6423 29.478 24.531H29.4702ZM27.1883 24.8729V21.7965H29.2192V22.6312H28.2626V22.9253H29.133V23.7123H28.2626V24.0382H29.2428V24.8729H27.1883ZM23.542 24.8729V21.7965H24.6084L25.5494 23.4023C25.5337 23.3307 25.5259 23.2512 25.5259 23.1638C25.5181 23.0764 25.5181 22.9651 25.5181 22.822V21.7886H26.5688V24.8649H25.4945L24.5614 23.2671C24.5692 23.3387 24.5771 23.4102 24.5849 23.4897C24.5928 23.5692 24.5928 23.6566 24.5928 23.752V24.8649H23.542V24.8729ZM23.0558 23.3387C23.0558 23.5612 23.0166 23.7759 22.9382 23.9667C22.8598 24.1574 22.7422 24.3323 22.5932 24.4833C22.4442 24.6344 22.2638 24.7457 22.0678 24.8252C21.8718 24.9046 21.66 24.9444 21.4326 24.9444C21.2052 24.9444 20.9935 24.9046 20.7975 24.8252C20.6014 24.7457 20.4211 24.6264 20.2721 24.4754C20.1231 24.3244 20.0055 24.1574 19.9271 23.9667C19.8486 23.7759 19.8094 23.5612 19.8094 23.3307C19.8094 23.1002 19.8486 22.8935 19.9271 22.6948C20.0055 22.504 20.1153 22.3291 20.2721 22.1781C20.4211 22.0271 20.6014 21.9158 20.7975 21.8363C20.9935 21.7568 21.2052 21.717 21.4326 21.717C21.66 21.717 21.8718 21.7568 22.0678 21.8363C22.2638 21.9158 22.4442 22.0271 22.5932 22.1781C22.7422 22.3291 22.8519 22.504 22.9304 22.6948C23.0088 22.8935 23.048 23.1002 23.048 23.3307L23.0558 23.3387ZM21.4326 23.919C21.5895 23.919 21.7071 23.8633 21.8012 23.76C21.8953 23.6566 21.9423 23.5136 21.9423 23.3387C21.9423 23.1638 21.8953 23.0207 21.8012 22.9174C21.7071 22.814 21.5816 22.7584 21.4326 22.7584C21.2758 22.7584 21.1582 22.814 21.0641 22.9174C20.97 23.0287 20.9229 23.1638 20.9229 23.3387C20.9229 23.5136 20.97 23.6566 21.0641 23.76C21.1582 23.8633 21.2836 23.919 21.4326 23.919ZM16.5474 24.8729V21.7965H17.4335C17.7158 21.7965 17.951 21.8124 18.1549 21.8442C18.3509 21.876 18.5156 21.9237 18.6411 21.9873C18.9077 22.1304 19.1037 22.3132 19.2448 22.5438C19.386 22.7743 19.4566 23.0366 19.4566 23.3307C19.4566 23.6248 19.386 23.8872 19.2448 24.1177C19.1037 24.3482 18.9077 24.531 18.6411 24.6741C18.5156 24.7377 18.3509 24.7934 18.1549 24.8252C17.9588 24.857 17.6922 24.8729 17.3629 24.8729H16.5631H16.5474ZM17.6295 23.9349C17.8726 23.9349 18.0529 23.8872 18.1706 23.7918C18.2803 23.6964 18.3431 23.5453 18.3431 23.3387C18.3431 23.1399 18.2882 22.9889 18.1784 22.8935C18.0686 22.7981 17.9039 22.7504 17.6765 22.7504H17.6295V23.9428V23.9349ZM12.8932 24.8729V21.7965H13.9597L14.9007 23.4023C14.885 23.3307 14.8771 23.2512 14.8771 23.1638C14.8693 23.0764 14.8693 22.9651 14.8693 22.822V21.7886H15.92V24.8649H14.8458L13.9126 23.2671C13.9205 23.3387 13.9283 23.4102 13.9361 23.4897C13.944 23.5692 13.944 23.6566 13.944 23.752V24.8649H12.8932V24.8729ZM11.1916 24.8729V21.7965H12.2973V24.8729H11.1916ZM6.80037 24.6582L7.1454 23.7997C7.30223 23.911 7.44338 23.9905 7.561 24.0382C7.68647 24.0859 7.79625 24.1177 7.90603 24.1177C7.98444 24.1177 8.03933 24.1018 8.07854 24.0779C8.12559 24.0461 8.14127 24.0143 8.14127 23.9587C8.14127 23.8713 8.03149 23.8077 7.81977 23.76C7.7492 23.7441 7.69431 23.7361 7.6551 23.7202C7.4277 23.6646 7.25518 23.5612 7.13756 23.4182C7.01994 23.2751 6.9572 23.1002 6.9572 22.8856C6.9572 22.5517 7.07483 22.2894 7.31007 22.0827C7.54532 21.876 7.85114 21.7727 8.22753 21.7727C8.40004 21.7727 8.57256 21.7965 8.74507 21.8442C8.90974 21.8919 9.08225 21.9635 9.25477 22.0509L8.92542 22.8538C8.82348 22.7743 8.7137 22.7186 8.61176 22.6709C8.50982 22.6312 8.40004 22.6074 8.30594 22.6074C8.22753 22.6074 8.17264 22.6233 8.13343 22.6471C8.09422 22.6709 8.0707 22.7107 8.0707 22.7584C8.0707 22.8458 8.21969 22.9253 8.52551 22.9889C8.57256 22.9969 8.61176 23.0128 8.63529 23.0128C8.84701 23.0605 9.01168 23.1558 9.1293 23.3069C9.24693 23.45 9.30966 23.6328 9.30966 23.8395C9.30966 24.1813 9.19203 24.4595 8.94895 24.6741C8.70586 24.8888 8.3922 25 8.00013 25C7.80409 25 7.60021 24.9682 7.40417 24.9126C7.20813 24.857 7.00425 24.7695 6.80822 24.6582H6.80037ZM6.57297 23.3864C6.57297 23.6089 6.53376 23.8236 6.45535 24.0143C6.37693 24.2051 6.25931 24.38 6.11032 24.539C5.96133 24.69 5.78098 24.8013 5.58494 24.8808C5.3889 24.9603 5.17718 25 4.94978 25C4.72238 25 4.51065 24.9603 4.31462 24.8808C4.11858 24.8013 3.93822 24.6821 3.78924 24.531C3.64025 24.38 3.52262 24.2131 3.44421 24.0223C3.36579 23.8315 3.32659 23.6169 3.32659 23.3864C3.32659 23.1558 3.36579 22.9492 3.44421 22.7504C3.52262 22.5597 3.63241 22.3848 3.78924 22.2337C3.93822 22.0827 4.11858 21.9714 4.31462 21.8919C4.51065 21.8124 4.72238 21.7727 4.94978 21.7727C5.17718 21.7727 5.3889 21.8124 5.58494 21.8919C5.78098 21.9714 5.96133 22.0827 6.11032 22.2337C6.25931 22.3848 6.36909 22.5597 6.44751 22.7504C6.52592 22.9492 6.56513 23.1558 6.56513 23.3864H6.57297ZM4.94978 23.9667C5.10661 23.9667 5.22423 23.911 5.31833 23.8077C5.41243 23.7043 5.45948 23.5612 5.45948 23.3864C5.45948 23.2115 5.41243 23.0684 5.31833 22.9651C5.22423 22.8617 5.09877 22.8061 4.94978 22.8061C4.79295 22.8061 4.67533 22.8617 4.58123 22.9651C4.48713 23.0764 4.44008 23.2115 4.44008 23.3864C4.44008 23.5612 4.48713 23.7043 4.58123 23.8077C4.67533 23.911 4.80079 23.9667 4.94978 23.9667ZM1.50736 22.7027V23.2115H1.67987C1.78181 23.2115 1.86022 23.1876 1.91512 23.1479C1.97001 23.1002 2.00137 23.0446 2.00137 22.9571C2.00137 22.8776 1.97001 22.814 1.91512 22.7663C1.86022 22.7186 1.78181 22.6948 1.67987 22.6948H1.50736V22.7027ZM0.409546 24.9205V21.8442H1.71124C2.16604 21.8442 2.50323 21.9317 2.71495 22.1145C2.92667 22.2973 3.03645 22.5756 3.03645 22.9651C3.03645 23.3307 2.94235 23.593 2.75416 23.76C2.56596 23.9269 2.26014 24.0143 1.84454 24.0143H1.49952V24.9205H0.409546Z" fill="#4C4C4C"/>
<path d="M13.3246 14.7615H16.5945L15.7084 15.3736H13.7088L13.3873 14.8808C13.3638 14.841 13.3403 14.8013 13.3246 14.7695V14.7615ZM29.2899 15.31L25.6671 15.3259C24.9849 17.1781 23.1814 18.7679 21.9032 19.5946C21.8326 19.6026 21.7856 19.6105 21.7385 19.6185C21.6679 19.6185 21.5974 19.6185 21.5268 19.6185C21.4249 19.6185 21.3308 19.6185 21.2288 19.6105C21.1975 19.6026 21.1583 19.6026 21.1112 19.5946C20.3349 19.1177 19.2763 18.3863 18.7117 17.5676L19.3547 17.2894C19.8722 17.9889 20.4996 18.4976 21.1347 19.1336L21.1504 16.6057L21.7385 16.3752L21.7542 19.1892C23.001 18.132 24.1694 16.7091 24.93 15.3259L24.6477 15.31L25.9965 14.7059L29.6663 14.6979C29.533 14.9523 29.4624 15.0715 29.3056 15.31H29.2899ZM21.7228 11.4706L21.1269 11.8522V10.8744H21.7228V11.4785V11.4706ZM17.512 14.1256C17.1356 13.1081 16.8846 12.0906 16.8297 10.9142H16.2573C16.3122 12.194 16.5239 13.3148 16.9317 14.5072L17.512 14.1256ZM21.7072 4.38792L21.715 0.961851C22.7736 1.79651 23.8871 2.98888 24.6712 4.38792H25.3848C24.4752 2.26551 22.6325 0.953902 21.8326 0.61209C21.7856 0.604141 21.7385 0.596191 21.6758 0.596191C21.6209 0.596191 21.566 0.596191 21.5111 0.596191C21.3857 0.596191 21.268 0.596191 21.1426 0.596191C21.119 0.596191 21.0877 0.604141 21.0642 0.604141C20.0212 1.13673 18.2726 2.53578 17.559 4.42767H18.3353C18.994 2.97298 20.0683 1.93959 21.1269 1.04929L21.119 4.39587H21.6993L21.7072 4.38792Z" fill="#E67015"/>
<path d="M11.6151 11.1049L12.1719 11.0572C12.4071 13.2353 13.1677 14.7774 14.3988 16.3593L13.9597 16.7329C12.5247 15.0397 11.6622 13.0524 11.6151 11.1129V11.1049ZM16.8376 18.3545L16.2102 18.6725C17.7393 19.6423 19.5821 20.1908 21.5189 20.1908C25.871 20.1113 29.6035 17.2257 30.9287 13.2273L30.2073 13.4579C28.937 17.0191 25.4632 19.6184 21.5189 19.6184C19.8722 19.6184 18.1706 19.1017 16.8297 18.3466L16.8376 18.3545ZM4.57343 6.91572L4.88709 6.66135L21.1425 6.08107C21.6287 6.10491 22.209 6.48647 22.3815 6.82828L4.57343 6.91572ZM3.36584 7.86167L22.7657 7.26549C23.1264 7.26549 23.6989 7.63115 24.0361 7.99681L3.01297 8.13194L3.37368 7.86167H3.36584ZM1.81322 9.10968L24.2478 8.4817C24.8516 8.45785 25.5181 8.9189 25.6279 9.17328L1.48388 9.39585L1.82106 9.11763L1.81322 9.10968ZM28.9997 4.4197C27.306 2.16215 24.4909 0.588221 21.5268 0.588221C18.5313 0.532577 15.5515 2.11445 13.9284 4.4515L13.2305 4.46739C15.0262 1.80444 18.1079 0.00793457 21.5268 0.00793457C24.8986 0.00793457 27.9176 1.76469 29.7133 4.4038L28.9997 4.4197ZM34.034 10.0874C34.2379 10.0874 34.3712 10.2544 34.3712 10.4769C34.3712 10.6916 34.2379 10.8187 34.034 10.8187C33.8301 10.8187 33.6497 10.6995 33.6497 10.4769C33.6497 10.2623 33.8301 10.0874 34.034 10.0874ZM6.51028 5.33385L29.7133 4.70587C32.4265 5.33385 32.3637 7.46421 31.0385 9.21302L33.5713 9.18917C34.8338 9.13353 35.516 10.3259 36.7315 11.5103C33.2655 11.8998 30.1132 12.7663 26.5297 13.9348C21.5111 15.6041 16.8532 17.6629 11.7876 19.849C14.4145 16.9157 16.7435 15.3895 19.0881 13.7679C20.8759 12.655 23.0794 11.407 24.7339 10.5087H25.9023C24.5222 11.2083 22.5305 12.4165 20.7191 13.4658C18.7979 14.5787 16.2808 16.2957 14.5557 18.0286C18.9783 16.1765 22.7265 14.5707 27.0942 13.1717C29.533 12.4086 32.3794 11.5024 35.3749 11.0095C35.0926 10.2703 34.4731 9.80126 33.391 9.80126H29.7447C30.521 8.94275 31.1718 7.67884 31.164 6.717C31.1561 6.11286 30.2936 5.50873 29.6427 5.51668L6.24367 5.61207L6.51813 5.34975L6.51028 5.33385ZM0.00183105 10.6359L0.291967 10.3974L25.0398 9.69792C25.5651 9.69792 25.9494 9.59458 26.2552 9.69792C26.6865 9.86485 27.0001 10.0874 27.2589 10.3974L0.00183105 10.6439V10.6359Z" fill="#E67015"/>
</g>
<defs>
<clipPath id="clip0_14_7015">
<rect width="37" height="25" fill="white"/>
</clipPath>
</defs>
</svg>
