<svg width="185" height="140" viewBox="0 0 185 140" fill="none" xmlns="http://www.w3.org/2000/svg">
<g clip-path="url(#clip0_6933_67443)">
<mask id="mask0_6933_67443" style="mask-type:luminance" maskUnits="userSpaceOnUse" x="59" y="0" width="126" height="140">
<path d="M163.73 20.4559C150.583 7.35572 132.78 0 114.22 0C95.6606 0 77.8576 7.35572 64.7107 20.4559C63.133 22.0442 61.7607 23.7311 60.3762 25.4115H74.9519C83.6176 17.7705 94.3189 12.8154 105.752 11.1501C117.184 9.4848 128.854 11.1813 139.34 16.0327C149.825 20.8841 158.673 28.681 164.804 38.473C170.935 48.2649 174.086 59.6291 173.872 71.1804C173.657 82.7317 170.087 93.9712 163.597 103.529C157.106 113.087 147.975 120.55 137.317 125.009C126.659 129.468 114.934 130.73 103.571 128.642C92.208 126.553 81.698 121.205 73.3218 113.247H59.6719C61.2275 115.442 62.91 117.544 64.7108 119.542C77.8541 132.655 95.6662 140.014 114.232 140C132.799 139.986 150.6 132.601 163.724 119.469C176.847 106.336 184.22 88.5298 184.221 69.9636C184.222 51.3974 176.852 33.5903 163.73 20.4559Z" fill="white"/>
</mask>
<g mask="url(#mask0_6933_67443)">
<path d="M59.6719 138.101L78.7351 146.817H74.4777L59.6719 140.047V138.101Z" fill="#005C70"/>
<path d="M59.6719 136.153L82.9926 146.817H78.7351L59.6719 138.101V136.153Z" fill="#005C70"/>
<path d="M59.6719 134.206L87.2522 146.818H82.9926L59.6719 136.154V134.206Z" fill="#005D70"/>
<path d="M59.6719 132.258L91.5096 146.818H87.2522L59.6719 134.206V132.258Z" fill="#005E71"/>
<path d="M59.6719 130.312L95.767 146.818H91.5096L59.6719 132.258V130.312Z" fill="#005E71"/>
<path d="M59.6719 128.364L100.024 146.818H95.767L59.6719 130.312V128.364Z" fill="#005F71"/>
<path d="M59.6719 126.416L104.284 146.817H100.024L59.6719 128.364V126.416Z" fill="#006071"/>
<path d="M59.6719 124.471L108.542 146.818H104.284L59.6719 126.417V124.471Z" fill="#006072"/>
<path d="M59.6719 122.523L112.799 146.817H108.542L59.6719 124.471V122.523Z" fill="#006172"/>
<path d="M59.6719 120.575L117.056 146.817H112.799L59.6719 122.523V120.575Z" fill="#006172"/>
<path d="M59.6719 118.627L121.316 146.817H117.056L59.6719 120.575V118.627Z" fill="#006272"/>
<path d="M59.6719 116.682L125.573 146.818H121.316L59.6719 118.627V116.682Z" fill="#006373"/>
<path d="M59.6719 114.734L129.831 146.817H125.573L59.6719 116.681V114.734Z" fill="#006373"/>
<path d="M59.6719 112.786L134.09 146.818H129.831L59.6719 114.734V112.786Z" fill="#006473"/>
<path d="M59.6719 110.84L138.348 146.818H134.09L59.6719 112.786V110.84Z" fill="#006574"/>
<path d="M59.6719 108.946L142.485 146.818H138.348L59.6719 110.84V108.946Z" fill="#006574"/>
<path d="M59.6719 107.054L146.623 146.818H142.485L59.6719 108.946V107.054Z" fill="#006574"/>
<path d="M59.6719 105.161L150.763 146.817H146.623L59.6719 107.053V105.161Z" fill="#006674"/>
<path d="M59.6719 103.269L154.9 146.817H150.763L59.6719 105.161V103.269Z" fill="#006674"/>
<path d="M59.6719 101.377L159.038 146.818H154.9L59.6719 103.269V101.377Z" fill="#006775"/>
<path d="M59.6719 99.485L163.178 146.818H159.038L59.6719 101.377V99.485Z" fill="#006875"/>
<path d="M59.6719 97.5926L167.315 146.818H163.178L59.6719 99.4848V97.5926Z" fill="#006875"/>
<path d="M59.6719 95.6981L170.875 146.554L170.753 146.817H167.315L59.6719 97.5925V95.6981Z" fill="#006975"/>
<path d="M59.6719 93.8062L171.59 144.988L170.875 146.554L59.6719 95.6984V93.8062Z" fill="#006A76"/>
<path d="M59.6719 91.9138L172.307 143.423L171.59 144.987L59.6719 93.806V91.9138Z" fill="#006A76"/>
<path d="M59.6719 90.0219L173.022 141.858L172.307 143.423L59.6719 91.914V90.0219Z" fill="#006B76"/>
<path d="M59.6719 88.1291L173.737 140.293L173.022 141.858L59.6719 90.0213V88.1291Z" fill="#006B76"/>
<path d="M59.6719 86.2374L174.454 138.729L173.737 140.293L59.6719 88.1296V86.2374Z" fill="#006C77"/>
<path d="M59.6719 84.3425L175.169 137.161L174.454 138.728L59.6719 86.2368V84.3425Z" fill="#006D77"/>
<path d="M59.6719 82.4505L175.886 135.597L175.169 137.162L59.6719 84.3427V82.4505Z" fill="#006D77"/>
<path d="M59.6719 80.5588L176.601 134.033L175.886 135.597L59.6719 82.451V80.5588Z" fill="#006E77"/>
<path d="M59.6719 78.6666L177.316 132.468L176.601 134.033L59.6719 80.5588V78.6666Z" fill="#006F78"/>
<path d="M59.6719 76.7741L178.033 130.901L177.316 132.468L59.6719 78.6663V76.7741Z" fill="#006F78"/>
<path d="M59.6719 74.8817L178.748 129.336L178.033 130.901L59.6719 76.7739V74.8817Z" fill="#007078"/>
<path d="M59.6719 72.9898L179.465 127.771L178.748 129.336L59.6719 74.882V72.9898Z" fill="#007178"/>
<path d="M59.6719 71.0953L180.18 126.207L179.465 127.771L59.6719 72.9897V71.0953Z" fill="#007179"/>
<path d="M59.6719 69.2034L180.895 124.642L180.18 126.207L59.6719 71.0956V69.2034Z" fill="#007279"/>
<path d="M59.6719 67.3117L181.612 123.076L180.895 124.643L59.6719 69.2039V67.3117Z" fill="#007379"/>
<path d="M59.6719 65.419L182.326 121.511L181.612 123.075L59.6719 67.3112V65.419Z" fill="#007379"/>
<path d="M59.6719 63.5269L183.044 119.946L182.326 121.511L59.6719 65.4191V63.5269Z" fill="#00747A"/>
<path d="M59.6719 61.6345L183.758 118.381L183.044 119.946L59.6719 63.5267V61.6345Z" fill="#00757A"/>
<path d="M59.6719 59.7424L184.473 116.814L183.758 118.381L59.6719 61.6346V59.7424Z" fill="#00757A"/>
<path d="M59.6719 57.848L185.19 115.25L184.473 116.814L59.6719 59.7424V57.848Z" fill="#00767A"/>
<path d="M59.6719 55.9558L185.905 113.685L185.19 115.25L59.6719 57.848V55.9558Z" fill="#00767B"/>
<path d="M59.6719 54.0634L186.622 112.12L185.905 113.685L59.6719 55.9556V54.0634Z" fill="#00777B"/>
<path d="M59.6719 52.1716L187.337 110.556L186.622 112.12L59.6719 54.0638V52.1716Z" fill="#00787B"/>
<path d="M59.6719 50.2793L188.052 108.989L187.337 110.556L59.6719 52.1715V50.2793Z" fill="#00787B"/>
<path d="M59.6719 48.3869L188.769 107.424L188.052 108.989L59.6719 50.2791V48.3869Z" fill="#00797B"/>
<path d="M59.6719 46.4944L189.484 105.859L188.769 107.424L59.6719 48.3866V46.4944Z" fill="#007A7C"/>
<path d="M59.6719 44.6006L190.201 104.295L189.484 105.859L59.6719 46.4949V44.6006Z" fill="#007A7C"/>
<path d="M59.6719 42.708L190.916 102.728L190.201 104.294L59.6719 44.6002V42.708Z" fill="#007B7C"/>
<path d="M59.6719 40.8161L191.021 100.885V102.497L190.916 102.728L59.6719 42.7083V40.8161Z" fill="#007C7C"/>
<path d="M59.6719 38.9237L191.021 98.9924V100.885L59.6719 40.8159V38.9237Z" fill="#007C7D"/>
<path d="M59.6719 37.0317L191.021 97.1004V98.9926L59.6719 38.9239V37.0317Z" fill="#007D7D"/>
<path d="M59.6719 35.1393L191.021 95.2059V97.1002L59.6719 37.0315V35.1393Z" fill="#007E7D"/>
<path d="M59.6719 33.2452L191.021 93.3139V95.2061L59.6719 35.1395V33.2452Z" fill="#007E7D"/>
<path d="M59.6719 31.3533L191.021 91.422V93.3142L59.6719 33.2455V31.3533Z" fill="#007F7D"/>
<path d="M59.6719 29.4608L191.021 89.5296V91.4217L59.6719 31.353V29.4608Z" fill="#00807E"/>
<path d="M59.6719 27.5685L191.021 87.6372V89.5294L59.6719 29.4607V27.5685Z" fill="#00807E"/>
<path d="M59.6719 25.6761L191.021 85.7448V87.637L59.6719 27.5683V25.6761Z" fill="#00817E"/>
<path d="M59.6719 23.7843L191.021 83.853V85.7452L59.6719 25.6765V23.7843Z" fill="#00827E"/>
<path d="M59.6719 21.8921L191.021 81.9587V83.8531L59.6719 23.7843V21.8921Z" fill="#00827E"/>
<path d="M59.6719 19.9977L191.021 80.0664V81.9586L59.6719 21.892V19.9977Z" fill="#00837F"/>
<path d="M59.6719 18.1056L191.021 78.1743V80.0665L59.6719 19.9978V18.1056Z" fill="#00847F"/>
<path d="M59.6719 16.6582L59.841 16.29L191.021 76.2817V78.1739L59.6719 18.1052V16.6582Z" fill="#00847F"/>
<path d="M59.8418 16.2903L60.5567 14.7256L191.022 74.3897V76.2819L59.8418 16.2903Z" fill="#00857F"/>
<path d="M60.5566 14.7256L61.2737 13.1609L191.022 72.4976V74.3898L60.5566 14.7256Z" fill="#00867F"/>
<path d="M61.2734 13.1604L61.9884 11.5936L191.022 70.6049V72.4971L61.2734 13.1604Z" fill="#008680"/>
<path d="M61.9883 11.5939L62.7032 10.0292L191.022 68.7108V70.6052L61.9883 11.5939Z" fill="#008780"/>
<path d="M62.7031 10.0295L63.4202 8.4648L191.022 66.819V68.7112L62.7031 10.0295Z" fill="#008880"/>
<path d="M63.418 8.46505L64.1329 6.90034L191.019 64.927V66.8192L63.418 8.46505Z" fill="#008880"/>
<path d="M64.1328 6.89989L64.8499 5.33519L191.019 63.0344V64.9266L64.1328 6.89989Z" fill="#008980"/>
<path d="M64.8516 5.3352L65.5665 3.76836L191.021 61.1422V63.0344L64.8516 5.3352Z" fill="#008A80"/>
<path d="M65.5664 3.76838L66.2813 2.20367L191.021 59.25V61.1422L65.5664 3.76838Z" fill="#008A81"/>
<path d="M66.2832 2.20354L67.0003 0.63884L191.023 57.3555V59.2499L66.2832 2.20354Z" fill="#008B81"/>
<path d="M66.998 0.639027L67.713 -0.925674L191.02 55.4635V57.3557L66.998 0.639027Z" fill="#008C81"/>
<path d="M67.7148 -0.925956L68.4319 -2.4928L191.022 53.571V55.4632L67.7148 -0.925956Z" fill="#008D81"/>
<path d="M68.4316 -2.4926L69.1466 -4.0573L191.022 51.679V53.5712L68.4316 -2.4926Z" fill="#008D81"/>
<path d="M69.1465 -4.05697L69.8614 -5.62167L191.022 49.7872V51.6794L69.1465 -4.05697Z" fill="#008E81"/>
<path d="M69.8594 -5.62208L70.4073 -6.81862H71.3834L191.02 47.8946V49.7868L69.8594 -5.62208Z" fill="#008F82"/>
<path d="M75.5223 -6.81862L191.021 46.0024V47.8946L71.3848 -6.81862H75.5223Z" fill="#008F82"/>
<path d="M79.6591 -6.81862L191.02 44.108V46.0024L75.5215 -6.81862H79.6591Z" fill="#009082"/>
<path d="M191.02 44.108L79.6582 -6.81862H191.02V44.108Z" fill="#009082"/>
</g>
<path d="M135.201 51.1103H30.1211V58.222H135.201V51.1103Z" fill="black"/>
<path d="M30.1213 57.3699L31.9835 58.2218L30.1211 58.222L30.1213 57.3699Z" fill="#007179"/>
<path d="M30.1213 55.4779L36.1211 58.222L31.9835 58.2218L30.1213 57.3699V55.4779Z" fill="#007279"/>
<path d="M30.1213 53.5853L40.2587 58.2216L36.1211 58.222L30.1213 55.4779V53.5853Z" fill="#007379"/>
<path d="M30.1213 51.6934L44.3984 58.2219L40.2587 58.2216L30.1213 53.5853V51.6934Z" fill="#007379"/>
<path d="M32.9852 51.1115L48.5359 58.2222L44.3984 58.2219L30.1213 51.6934L30.1212 51.1115H32.9852Z" fill="#00747A"/>
<path d="M37.1239 51.1114L52.6746 58.2221H48.537L32.9863 51.1114H37.1239Z" fill="#00757A"/>
<path d="M41.2629 51.1114L56.8136 58.2221H52.6739L37.1232 51.1114H41.2629Z" fill="#00757A"/>
<path d="M45.4003 51.1114L60.951 58.2221H56.8136L41.2629 51.1114H45.4003Z" fill="#00767A"/>
<path d="M49.5378 51.1114L65.0884 58.2221H60.951L45.4003 51.1114H49.5378Z" fill="#00767B"/>
<path d="M53.6781 51.1114L69.2288 58.2221H65.0891L49.5384 51.1114H53.6781Z" fill="#00777B"/>
<path d="M57.8155 51.1114L73.3662 58.2221H69.2288L53.6781 51.1114H57.8155Z" fill="#00787B"/>
<path d="M61.9528 51.1114L77.5035 58.2221H73.3662L57.8155 51.1114H61.9528Z" fill="#00787B"/>
<path d="M66.0931 51.1114L81.6438 58.2221H77.5041L61.9534 51.1114H66.0931Z" fill="#00797B"/>
<path d="M70.2303 51.1114L85.781 58.2221H81.6438L66.0931 51.1114H70.2303Z" fill="#007A7C"/>
<path d="M74.3676 51.1114L89.9204 58.2221H85.781L70.2303 51.1114H74.3676Z" fill="#007A7C"/>
<path d="M78.5076 51.1114L94.0583 58.2221H89.9204L74.3676 51.1114H78.5076Z" fill="#007B7C"/>
<path d="M82.6455 51.1114L98.1962 58.2221H94.0583L78.5076 51.1114H82.6455Z" fill="#007C7C"/>
<path d="M86.7826 51.1114L102.335 58.2221H98.1962L82.6455 51.1114H86.7826Z" fill="#007C7D"/>
<path d="M90.9222 51.1114L106.473 58.2221H102.335L86.7826 51.1114H90.9222Z" fill="#007D7D"/>
<path d="M95.0596 51.1114L110.61 58.2221H106.473L90.9222 51.1114H95.0596Z" fill="#007E7D"/>
<path d="M99.1976 51.1114L114.75 58.2221H110.61L95.0596 51.1114H99.1976Z" fill="#007E7D"/>
<path d="M103.337 51.1114L118.888 58.2221H114.75L99.1976 51.1114H103.337Z" fill="#007F7D"/>
<path d="M107.475 51.1114L123.025 58.2221H118.888L103.337 51.1114H107.475Z" fill="#00807E"/>
<path d="M111.613 51.1114L127.166 58.2221H123.025L107.475 51.1114H111.613Z" fill="#00807E"/>
<path d="M115.752 51.1114L131.303 58.2221H127.166L111.613 51.1114H115.752Z" fill="#00817E"/>
<path d="M119.89 51.1114L135.201 58.1129L135.201 58.222L131.303 58.2221L115.752 51.1114H119.89Z" fill="#00827E"/>
<path d="M124.027 51.1114L135.2 56.2207L135.201 58.1129L119.89 51.1114H124.027Z" fill="#00827E"/>
<path d="M128.167 51.1114L135.201 54.3264V56.2207L124.028 51.1114H128.167Z" fill="#00837F"/>
<path d="M132.304 51.1114L135.201 52.4342L135.201 54.3264L128.167 51.1114H132.304Z" fill="#00847F"/>
<path d="M135.201 52.4342L132.304 51.1114H135.201L135.201 52.4342Z" fill="#00847F"/>
<path d="M122.412 66.4227H17.3438V73.5538H122.412V66.4227Z" fill="black"/>
<path d="M17.3439 72.345L19.9896 73.5543L17.3438 73.5538L17.3439 72.345Z" fill="#006A76"/>
<path d="M17.3439 70.4505L24.1293 73.5542L19.9896 73.5543L17.3439 72.345V70.4505Z" fill="#006B76"/>
<path d="M17.3439 68.5581L28.2669 73.554L24.1293 73.5542L17.3439 70.4505V68.5581Z" fill="#006B76"/>
<path d="M17.3439 66.6661L32.4045 73.5542L28.2669 73.554L17.3439 68.5581V66.6661Z" fill="#006C77"/>
<path d="M20.9506 66.4221L36.5441 73.5542L32.4045 73.5542L17.3439 66.6661L17.3438 66.4221H20.9506Z" fill="#006D77"/>
<path d="M25.0877 66.4222L40.6812 73.5543L36.5441 73.5542L20.9506 66.4221L25.0877 66.4222Z" fill="#006D77"/>
<path d="M29.2257 66.4222L44.8192 73.5543H40.6812L25.0877 66.4222H29.2257Z" fill="#006E77"/>
<path d="M33.3657 66.4222L48.9592 73.5543H44.8192L29.2257 66.4222H33.3657Z" fill="#006F78"/>
<path d="M37.5029 66.4222L53.0964 73.5543H48.9592L33.3657 66.4222H37.5029Z" fill="#006F78"/>
<path d="M41.6403 66.4222L57.2338 73.5543H53.0964L37.5029 66.4222H41.6403Z" fill="#007078"/>
<path d="M45.7803 66.4222L61.3738 73.5543H57.2338L41.6403 66.4222H45.7803Z" fill="#007178"/>
<path d="M49.9179 66.4222L65.5114 73.5543H61.3738L45.7803 66.4222H49.9179Z" fill="#007179"/>
<path d="M54.055 66.4222L69.6484 73.5543H65.5114L49.9179 66.4222H54.055Z" fill="#007279"/>
<path d="M58.1951 66.4222L73.7886 73.5543H69.6484L54.055 66.4222H58.1951Z" fill="#007379"/>
<path d="M62.3331 66.4222L77.9266 73.5543H73.7886L58.1951 66.4222H62.3331Z" fill="#007379"/>
<path d="M66.47 66.4222L82.0635 73.5543H77.9259L62.3324 66.4222H66.47Z" fill="#00747A"/>
<path d="M70.6095 66.4222L86.2031 73.5543H82.0635L66.47 66.4222H70.6095Z" fill="#00757A"/>
<path d="M74.7477 66.4222L90.3412 73.5543H86.2036L70.6095 66.4222H74.7477Z" fill="#00757A"/>
<path d="M78.8852 66.4222L94.4787 73.5543H90.3412L74.7477 66.4222H78.8852Z" fill="#00767A"/>
<path d="M83.0244 66.4222L98.6179 73.5543H94.4787L78.8852 66.4222H83.0244Z" fill="#00767B"/>
<path d="M87.162 66.4222L102.755 73.5543H98.6179L83.0244 66.4222H87.162Z" fill="#00777B"/>
<path d="M91.3004 66.4222L106.894 73.5543H102.756L87.1628 66.4222H91.3004Z" fill="#00787B"/>
<path d="M95.4396 66.4222L111.033 73.5543H106.894L91.3004 66.4222H95.4396Z" fill="#00787B"/>
<path d="M99.5772 66.4222L115.171 73.5543H111.033L95.4396 66.4222H99.5772Z" fill="#00797B"/>
<path d="M103.715 66.4222L119.309 73.5543H115.171L99.5772 66.4222H103.715Z" fill="#007A7C"/>
<path d="M107.855 66.4222L122.412 73.0813L122.412 73.5538L119.309 73.5543L103.715 66.4222H107.855Z" fill="#007A7C"/>
<path d="M111.992 66.4222L122.412 71.1891L122.412 73.0813L107.855 66.4222H111.992Z" fill="#007B7C"/>
<path d="M116.13 66.4222L122.412 69.2947L122.412 71.1891L111.992 66.4222H116.13Z" fill="#007C7C"/>
<path d="M120.27 66.4222L122.412 67.4025L122.412 69.2947L116.13 66.4222H120.27Z" fill="#007C7D"/>
<path d="M122.412 67.4025L120.27 66.4222L122.412 66.4227L122.412 67.4025Z" fill="#007D7D"/>
<path d="M105.221 81.793H0.174398V88.9069H105.221V81.793Z" fill="black"/>
<path d="M0.173828 87.2325L3.83621 88.9063H0.173828V87.2325Z" fill="#006373"/>
<path d="M0.173828 85.2849L8.09366 88.9066L3.83621 88.9063L0.173828 87.2325V85.2849Z" fill="#006473"/>
<path d="M0.173828 83.3391L12.3511 88.9066L8.09366 88.9066L0.173828 85.2849V83.3391Z" fill="#006574"/>
<path d="M0.933704 81.7936L16.4887 88.9065L12.3511 88.9066L0.173828 83.3391V81.7936H0.933704Z" fill="#006574"/>
<path d="M5.07076 81.7935L20.6279 88.9064L16.4887 88.9065L0.933704 81.7936L5.07076 81.7935Z" fill="#006574"/>
<path d="M9.21111 81.7935L24.7661 88.9064H20.6285L5.0714 81.7935H9.21111Z" fill="#006674"/>
<path d="M13.3485 81.7935L28.9035 88.9064H24.7661L9.21111 81.7935H13.3485Z" fill="#006674"/>
<path d="M17.4858 81.7935L33.0429 88.9064H28.9035L13.3485 81.7935H17.4858Z" fill="#006775"/>
<path d="M21.6263 81.7935L37.1813 88.9064H33.0437L17.4866 81.7935H21.6263Z" fill="#006875"/>
<path d="M25.7635 81.7935L41.3185 88.9064H37.1813L21.6263 81.7935H25.7635Z" fill="#006875"/>
<path d="M29.9006 81.7935L45.4577 88.9064H41.3185L25.7635 81.7935H29.9006Z" fill="#006975"/>
<path d="M34.0404 81.7935L49.5953 88.9064H45.4577L29.9006 81.7935H34.0404Z" fill="#006A76"/>
<path d="M38.1785 81.7935L53.7335 88.9064H49.5959L34.041 81.7935H38.1785Z" fill="#006A76"/>
<path d="M42.3158 81.7935L57.8729 88.9064H53.7335L38.1785 81.7935H42.3158Z" fill="#006B76"/>
<path d="M46.4552 81.7935L62.0102 88.9064H57.8729L42.3158 81.7935H46.4552Z" fill="#006B76"/>
<path d="M50.5928 81.7935L66.1478 88.9064H62.0102L46.4552 81.7935H50.5928Z" fill="#006C77"/>
<path d="M54.731 81.7935L70.2881 88.9064H66.1484L50.5934 81.7935H54.731Z" fill="#006D77"/>
<path d="M58.87 81.7935L74.425 88.9064H70.2874L54.7303 81.7935H58.87Z" fill="#006D77"/>
<path d="M63.0078 81.7935L78.5628 88.9064H74.425L58.87 81.7935H63.0078Z" fill="#006E77"/>
<path d="M67.1458 81.7935L82.7029 88.9064H78.5628L63.0078 81.7935H67.1458Z" fill="#006F78"/>
<path d="M71.2852 81.7935L86.8402 88.9064H82.7029L67.1458 81.7935H71.2852Z" fill="#006F78"/>
<path d="M75.4226 81.7935L90.9797 88.9064H86.8402L71.2852 81.7935H75.4226Z" fill="#007078"/>
<path d="M79.5599 81.7935L95.117 88.9064H90.9797L75.4226 81.7935H79.5599Z" fill="#007178"/>
<path d="M83.7004 81.7935L99.2554 88.9064H95.1178L79.5607 81.7935H83.7004Z" fill="#007179"/>
<path d="M87.8374 81.7935L103.395 88.9064H99.2554L83.7004 81.7935H87.8374Z" fill="#007279"/>
<path d="M91.9751 81.7935L105.22 87.849V88.9064H103.395L87.8374 81.7935H91.9751Z" fill="#007379"/>
<path d="M96.1151 81.7935L105.221 85.9568L105.22 87.849L91.9751 81.7935H96.1151Z" fill="#007379"/>
<path d="M100.253 81.7935L105.221 84.0646L105.221 85.9568L96.1151 81.7935H100.253Z" fill="#00747A"/>
<path d="M104.39 81.7935L105.221 82.1724L105.221 84.0646L100.253 81.7935H104.39Z" fill="#00757A"/>
<path d="M105.22 82.1722L104.39 81.7935H105.22V82.1722Z" fill="#00757A"/>
</g>
<defs>
<clipPath id="clip0_6933_67443">
<rect width="184.685" height="140" fill="white"/>
</clipPath>
</defs>
</svg>
