<?xml version="1.0" encoding="UTF-8" standalone="no"?>
<!-- Creator: CorelDRAW X6 -->

<svg
   xmlns:dc="http://purl.org/dc/elements/1.1/"
   xmlns:cc="http://creativecommons.org/ns#"
   xmlns:rdf="http://www.w3.org/1999/02/22-rdf-syntax-ns#"
   xmlns:svg="http://www.w3.org/2000/svg"
   xmlns="http://www.w3.org/2000/svg"
   xmlns:sodipodi="http://sodipodi.sourceforge.net/DTD/sodipodi-0.dtd"
   xmlns:inkscape="http://www.inkscape.org/namespaces/inkscape"
   xml:space="preserve"
   width="10.416667in"
   height="2.3533587in"
   version="1.1"
   style="clip-rule:evenodd;fill-rule:evenodd;image-rendering:optimizeQuality;shape-rendering:geometricPrecision;text-rendering:geometricPrecision"
   viewBox="0 0 10416.64 2353.3527"
   id="svg39"
   sodipodi:docname="Senayan City.svg"
   inkscape:version="0.92.4 (5da689c313, 2019-01-14)"><metadata
   id="metadata43"><rdf:RDF><cc:Work
       rdf:about=""><dc:format>image/svg+xml</dc:format><dc:type
         rdf:resource="http://purl.org/dc/dcmitype/StillImage" /><dc:title></dc:title></cc:Work></rdf:RDF></metadata><sodipodi:namedview
   pagecolor="#ffffff"
   bordercolor="#666666"
   borderopacity="1"
   objecttolerance="10"
   gridtolerance="10"
   guidetolerance="10"
   inkscape:pageopacity="0"
   inkscape:pageshadow="2"
   inkscape:window-width="1920"
   inkscape:window-height="1001"
   id="namedview41"
   showgrid="false"
   fit-margin-top="0"
   fit-margin-left="0"
   fit-margin-right="0"
   fit-margin-bottom="0"
   inkscape:zoom="1"
   inkscape:cx="724.04368"
   inkscape:cy="-5.2283522"
   inkscape:window-x="-9"
   inkscape:window-y="-9"
   inkscape:window-maximized="1"
   inkscape:current-layer="svg39" />
 <defs
   id="defs4">
  <style
   type="text/css"
   id="style2">
   <![CDATA[
    .fil1 {fill:#0F5FFF}
    .fil9 {fill:#4F0845}
    .fil10 {fill:#ABBD26}
    .fil2 {fill:white}
    .fil5 {fill:#009933;fill-rule:nonzero}
    .fil6 {fill:#0F5FFF;fill-rule:nonzero}
    .fil8 {fill:#4D4D4D;fill-rule:nonzero}
    .fil0 {fill:#B3B3B3;fill-rule:nonzero}
    .fil4 {fill:red;fill-rule:nonzero}
    .fil3 {fill:#FFCC00;fill-rule:nonzero}
    .fil7 {fill:white;fill-rule:nonzero}
   ]]>
  </style>
 
  
  
  =&quot;new 61.544 37.63 141.911 86.74&quot; 遗㨀耀/&gt;
  
 </defs>
 <g
   id="_876968768"
   transform="matrix(3.6710381,0,0,3.6710381,-2017.166,-4673.1535)">
   <path
   style="fill:#4f0845"
   inkscape:connector-curvature="0"
   d="m 2594,1875 c -146,-38 -205,-214 -109,-328 56,-65 129,-88 213,-76 21,3 42,8 63,14 12,2 20,12 20,23 1,16 3,34 5,50 0,3 -2,6 -3,9 -3,-1 -7,-2 -10,-5 -2,-2 -5,-6 -6,-8 -41,-82 -130,-78 -183,-50 -46,24 -71,66 -81,115 -16,74 -2,141 49,199 36,43 95,59 149,42 23,-9 42,-25 53,-46 7,-12 13,-24 20,-36 2,-3 8,-6 12,-9 2,5 3,8 3,13 0,16 -2,34 -2,50 0,12 -7,22 -17,25 -57,29 -115,37 -174,19 z m 273,-66 c -13,0 -25,0 -39,0 -2,0 -6,-2 -8,-3 2,-1 5,-5 8,-5 24,-2 24,-2 24,-25 0,-53 0,-107 0,-160 0,-3 0,-7 0,-10 0,-7 -5,-12 -10,-13 0,0 -1,0 -1,0 -5,0 -10,-1 -15,-1 -2,0 -3,-3 -5,-5 1,-1 3,-3 6,-5 1,0 3,0 5,0 h 73 c 1,0 2,0 3,0 2,1 5,3 8,5 -2,2 -5,3 -8,5 -3,1 -8,1 -12,1 -6,-1 -13,3 -13,9 0,1 0,1 0,2 0,5 -1,8 -1,13 0,52 0,104 0,156 0,1 0,2 0,3 0,21 2,23 23,24 1,0 2,0 5,0 2,1 5,2 6,5 -2,1 -5,3 -6,3 -8,0 -16,-1 -24,-1 -6,0 -12,0 -17,0 l -1,1 z m 266,-243 c 1,2 2,6 2,8 0,16 -1,31 -2,47 0,2 -2,5 -3,7 -2,-2 -3,-3 -5,-6 -12,-31 -14,-32 -47,-32 h -21 c -7,0 -9,3 -9,9 0,2 0,6 0,8 0,54 0,108 0,161 0,6 0,12 0,16 0,7 5,12 10,13 0,0 1,0 1,0 5,0 10,1 15,1 2,0 3,3 5,5 -1,1 -3,2 -5,3 -1,0 -3,0 -5,0 h -74 c -1,0 -3,0 -5,0 -2,-1 -3,-2 -6,-5 1,-1 3,-3 5,-3 5,-1 9,-1 14,-1 7,0 12,-5 13,-10 0,0 0,-1 0,-1 0,-5 1,-9 1,-14 0,-57 0,-113 0,-170 0,-13 -1,-14 -14,-14 -8,0 -16,0 -23,1 -13,1 -24,7 -32,16 -5,6 -8,12 -13,17 -2,2 -5,5 -8,6 -1,-3 -1,-6 -1,-9 5,-15 8,-29 13,-43 1,-5 2,-8 5,-13 h 5 c 3,14 5,15 19,15 46,0 91,0 138,0 13,0 22,-2 24,-15 l 5,2 z m 254,22 c -2,1 -6,2 -9,2 -13,0 -24,6 -30,16 -22,32 -45,65 -66,97 -2,5 -3,9 -3,15 0,21 0,42 0,61 0,14 3,16 16,17 3,0 7,0 10,1 2,0 3,3 5,5 -1,1 -3,2 -5,3 -1,0 -3,0 -5,0 h -74 c -1,0 -3,0 -5,0 -2,-1 -3,-2 -6,-5 1,-1 3,-3 5,-3 3,0 8,-1 12,-1 12,-1 15,-3 15,-15 0,-12 0,-25 0,-38 0,-44 3,-32 -21,-68 -16,-24 -32,-47 -49,-71 -6,-10 -17,-16 -29,-15 -2,0 -3,0 -6,-1 -1,-1 -3,-2 -3,-3 0,-2 2,-3 3,-5 2,0 5,0 7,0 h 75 c 1,0 3,0 5,0 2,1 3,2 6,5 -1,1 -3,3 -5,5 -3,0 -8,1 -12,1 -10,1 -13,5 -8,14 1,2 3,6 5,8 16,24 32,47 49,72 2,3 5,6 8,10 2,-2 5,-6 7,-9 15,-23 31,-46 46,-71 l 1,-2 c 9,-16 7,-22 -13,-23 -2,0 -5,0 -7,0 -2,-1 -5,-2 -6,-5 2,-2 3,-3 6,-5 2,0 3,0 6,0 20,0 39,0 59,0 3,1 8,1 12,3 l 3,3 z"
   class="fil9"
   id="_Path_2" />
   <path
   style="fill:#abbd26"
   inkscape:connector-curvature="0"
   d="m 2657,1477 c -133,-85 -227,-56 -284,-42 0,0 -139,58 -192,63 0,0 21,-153 -96,-206 -117,-53 -183,20 -191,35 0,0 -45,87 25,155 71,68 212,37 212,37 l -8,120 c 0,0 -21,151 108,236 129,86 350,14 427,-63 78,-76 132,-251 -1,-336 z m -525,24 c 0,0 -105,34 -167,-13 -61,-46 -44,-129 -44,-129 0,0 31,-96 123,-71 91,25 88,212 88,212 z m 530,224 c -30,89 -108,153 -200,166 -108,16 -206,-27 -264,-109 -58,-82 -19,-270 -19,-270 69,-14 190,-61 190,-61 138,-50 225,20 225,20 134,117 68,255 68,255 z"
   class="fil10"
   id="_Compound_Path_" />
   <path
   style="fill:#4f0845"
   inkscape:connector-curvature="0"
   d="m 589,1890 c -39,-12 -41,-15 -39,-51 0,-15 0,-31 1,-46 0,-6 6,-12 9,-17 5,5 8,9 12,15 3,9 3,20 6,29 17,66 89,80 142,68 44,-9 76,-32 83,-74 7,-42 -13,-72 -52,-91 -29,-15 -60,-25 -90,-37 -16,-7 -32,-14 -47,-22 -86,-46 -67,-140 6,-177 42,-22 87,-23 133,-17 19,2 37,6 56,12 7,2 13,8 15,16 2,20 3,39 3,59 0,3 -3,7 -6,10 -3,-1 -7,-3 -10,-7 -2,-3 -3,-7 -5,-10 -20,-66 -79,-79 -140,-64 -30,7 -52,23 -59,51 -8,28 5,57 31,69 29,17 61,29 93,43 27,10 51,23 75,38 69,49 65,137 -7,185 -70,45 -134,39 -210,19 z m 1121,-191 c 3,-5 7,-8 9,-10 16,-24 32,-47 47,-72 1,-1 2,-3 3,-6 9,-17 7,-23 -14,-23 -2,0 -6,0 -8,-1 -2,-1 -5,-2 -6,-5 1,-2 3,-3 6,-5 2,0 5,0 7,0 h 64 c 2,0 6,0 8,1 2,1 3,3 3,6 0,1 -2,3 -5,3 -28,0 -39,20 -52,38 -17,25 -36,52 -52,78 -5,8 -7,16 -8,25 -1,21 0,42 0,63 0,14 3,17 19,19 3,0 8,0 12,1 2,0 3,2 5,3 -1,2 -3,3 -6,5 -2,0 -5,0 -6,0 h -76 c -2,0 -5,0 -7,0 -2,-1 -3,-3 -6,-5 1,-1 3,-3 5,-3 5,-1 10,-1 15,-1 7,0 14,-5 14,-12 0,0 0,-1 0,-1 1,-12 1,-23 1,-35 0,-60 6,-39 -28,-89 -15,-23 -31,-45 -47,-68 -6,-10 -17,-16 -30,-16 -2,0 -3,0 -6,0 -2,-1 -3,-3 -5,-5 1,-2 3,-3 6,-5 2,0 5,0 6,0 h 79 c 2,0 5,0 7,0 2,1 5,2 6,5 -2,1 -3,5 -5,5 -5,1 -9,1 -14,1 -9,1 -12,5 -8,13 1,2 2,6 5,8 19,27 37,54 56,81 1,1 3,3 7,7 z m 152,20 h 74 l -36,-88 h -3 z m 122,102 c -14,0 -28,0 -42,0 -3,-1 -8,-2 -12,-3 3,-2 8,-3 12,-6 3,-1 8,-1 12,-1 10,-1 15,-7 12,-17 -3,-10 -8,-21 -12,-31 -2,-5 -3,-9 -6,-14 -7,-17 -7,-17 -25,-17 -19,0 -37,0 -56,0 -5,0 -9,2 -12,6 -7,17 -14,34 -20,51 -5,13 1,20 14,21 5,1 10,0 15,1 2,0 3,2 5,3 -2,1 -3,3 -6,5 -2,1 -2,0 -2,0 -24,0 -49,0 -73,0 -2,0 -5,-3 -7,-5 2,-1 5,-5 7,-5 22,2 29,-13 36,-30 25,-66 52,-132 78,-198 2,-5 5,-8 8,-12 2,3 6,7 7,12 27,66 54,132 81,198 2,6 6,13 9,19 6,8 14,13 23,12 2,0 5,3 7,6 -2,1 -6,2 -8,3 -15,3 -30,3 -45,3 v 0 z m -508,-191 h -3 l -35,89 h 74 z m 83,191 c -15,0 -29,0 -44,0 -3,-1 -6,-2 -9,-3 2,-2 6,-5 9,-6 5,-1 9,-1 14,-1 13,-1 16,-7 13,-19 -3,-12 -8,-21 -12,-31 -2,-5 -5,-9 -7,-15 -6,-15 -6,-15 -21,-15 -20,0 -38,0 -58,0 -5,-1 -10,2 -13,7 -7,17 -14,34 -20,51 -5,13 1,20 15,21 3,0 7,0 9,1 3,1 7,3 9,5 -3,2 -7,3 -10,5 -3,0 -7,0 -10,0 h -51 c -3,0 -8,0 -12,0 -2,0 -3,-2 -5,-3 1,-1 3,-3 5,-5 1,0 2,0 3,0 17,2 27,-9 31,-23 20,-50 38,-100 58,-148 8,-20 15,-39 23,-60 2,-2 3,-6 7,-8 2,2 3,5 6,8 28,68 56,135 83,204 2,6 6,12 9,16 5,7 12,12 20,12 3,0 10,-1 9,6 0,1 -7,3 -12,3 -14,0 -28,0 -43,0 h 1 z m -503,-188 c -2,-2 -5,-5 -6,-7 -2,-3 -3,-6 -5,-9 -6,-17 -22,-29 -41,-28 -17,-1 -35,0 -52,0 -6,-1 -13,3 -14,9 0,1 0,2 0,3 0,23 0,45 0,68 -1,6 3,12 9,12 1,0 2,0 2,0 h 51 c 9,0 16,-7 16,-15 0,0 0,0 0,0 1,-5 2,-10 3,-15 0,-2 3,-3 5,-5 1,2 3,3 3,6 0,23 0,46 0,68 0,2 -2,3 -3,6 -2,-1 -3,-3 -6,-5 -1,-2 -1,-5 -2,-7 -3,-16 -8,-21 -24,-22 -16,-1 -30,-1 -45,-1 -5,-1 -9,2 -10,7 0,1 0,1 0,2 0,27 0,54 1,81 1,16 9,23 25,24 16,1 32,1 49,0 19,-1 35,-13 41,-31 2,-5 3,-8 6,-13 1,-1 3,-2 6,-2 1,2 2,3 2,6 -2,15 -5,31 -7,46 0,2 -6,5 -9,5 -28,0 -56,0 -82,0 -27,0 -57,1 -85,1 -1,0 -2,0 -2,0 -3,-1 -7,-3 -10,-5 3,-2 7,-3 10,-6 2,0 5,0 7,0 13,-1 17,-5 17,-17 0,-63 0,-125 0,-188 0,-13 -5,-16 -17,-17 -3,0 -7,0 -10,-1 -2,-1 -5,-3 -7,-6 2,-1 5,-3 7,-5 2,-1 2,0 3,0 54,0 109,0 163,0 8,0 12,2 12,10 0,12 0,23 0,35 0,3 0,6 -1,9 v 5 z m 1211,191 c -16,-21 -34,-42 -50,-64 l -117,-149 c -1,-2 -3,-3 -7,-7 v 9 c 0,56 0,111 0,166 0,1 0,2 0,2 0,27 1,27 28,29 2,0 5,2 8,3 -2,2 -6,5 -8,5 -22,0 -44,0 -66,0 -2,0 -5,-3 -8,-6 2,-1 5,-3 8,-3 27,-1 28,-2 28,-29 0,-56 0,-112 0,-168 0,-5 0,-8 0,-13 0,-7 -6,-13 -13,-13 0,0 0,0 0,0 -5,0 -8,0 -13,-1 -3,-1 -6,-3 -9,-6 2,-2 6,-3 9,-5 6,0 12,0 17,0 7,0 14,0 21,0 10,-1 21,3 25,12 44,58 89,115 134,171 l 5,6 c 0,-5 1,-7 1,-9 0,-47 0,-95 0,-142 0,-1 0,-3 0,-5 -1,-20 -3,-23 -24,-23 -1,0 -1,0 -2,0 l -9,-6 c 3,-1 7,-5 10,-5 21,0 41,0 61,0 2,0 3,0 6,0 2,1 5,3 5,5 0,1 -2,5 -5,5 -6,1 -10,1 -16,1 -7,0 -14,6 -14,13 0,0 0,0 0,1 0,6 -1,13 -1,19 0,63 0,126 0,189 0,5 0,9 -1,14 l -3,5 z m -952,0 c -16,-21 -34,-42 -50,-64 l -118,-149 c -1,-2 -3,-3 -7,-7 0,5 0,7 0,9 0,56 0,111 0,166 0,1 0,2 0,2 0,27 1,27 28,29 2,0 5,2 8,3 -2,2 -6,5 -8,5 -22,0 -44,0 -66,0 -2,0 -6,-3 -8,-6 2,-1 5,-3 8,-3 27,-1 28,-2 28,-29 0,-56 0,-112 0,-168 0,-5 0,-8 0,-13 0,-7 -6,-13 -13,-13 0,0 0,0 0,0 -5,0 -8,0 -13,-1 -3,-1 -6,-3 -9,-6 2,-2 6,-3 9,-5 6,0 12,0 17,0 7,0 14,0 21,0 10,-1 21,3 25,12 44,58 89,115 134,171 l 5,6 c 0,-5 1,-7 1,-9 0,-47 0,-95 0,-142 0,-1 0,-3 0,-5 -1,-20 -3,-23 -24,-23 0,0 -1,0 -2,0 l -9,-6 c 3,-1 7,-5 10,-5 21,0 41,0 61,0 2,0 3,0 6,0 2,1 3,3 5,5 1,1 -2,5 -5,5 -6,1 -10,1 -16,1 -7,0 -14,6 -14,13 0,0 0,0 0,1 0,6 -1,13 -1,19 0,63 0,126 0,189 0,5 0,9 -1,14 l -2,5 z"
   class="fil9"
   id="_Path_2_0" />
  </g>
</svg>