<?xml version="1.0" encoding="UTF-8" standalone="no"?>
<svg
   xmlns:dc="http://purl.org/dc/elements/1.1/"
   xmlns:cc="http://creativecommons.org/ns#"
   xmlns:rdf="http://www.w3.org/1999/02/22-rdf-syntax-ns#"
   xmlns:svg="http://www.w3.org/2000/svg"
   xmlns="http://www.w3.org/2000/svg"
   xmlns:sodipodi="http://sodipodi.sourceforge.net/DTD/sodipodi-0.dtd"
   xmlns:inkscape="http://www.inkscape.org/namespaces/inkscape"
   width="264.58334mm"
   height="66.139725mm"
   viewBox="0 0 264.58334 66.139725"
   version="1.1"
   id="svg2754"
   inkscape:version="1.0.1 (3bc2e813f5, 2020-09-07)"
   sodipodi:docname="Siloam Hospitals.svg">
  <defs
     id="defs2748" />
  <sodipodi:namedview
     id="base"
     pagecolor="#ffffff"
     bordercolor="#666666"
     borderopacity="1.0"
     inkscape:pageopacity="0.0"
     inkscape:pageshadow="2"
     inkscape:zoom="1"
     inkscape:cx="869.45361"
     inkscape:cy="25.453843"
     inkscape:document-units="mm"
     inkscape:current-layer="layer1"
     inkscape:document-rotation="0"
     showgrid="false"
     fit-margin-top="0"
     fit-margin-left="0"
     fit-margin-right="0"
     fit-margin-bottom="0"
     inkscape:window-width="1920"
     inkscape:window-height="1001"
     inkscape:window-x="-9"
     inkscape:window-y="-9"
     inkscape:window-maximized="1" />
  <metadata
     id="metadata2751">
    <rdf:RDF>
      <cc:Work
         rdf:about="">
        <dc:format>image/svg+xml</dc:format>
        <dc:type
           rdf:resource="http://purl.org/dc/dcmitype/StillImage" />
        <dc:title></dc:title>
      </cc:Work>
    </rdf:RDF>
  </metadata>
  <g
     inkscape:label="Layer 1"
     inkscape:groupmode="layer"
     id="layer1"
     transform="translate(-207.64417,-175.88817)">
    <g
       id="g2928"
       transform="matrix(3.2820028,0,0,3.2820028,-473.84457,-401.37729)">
      <g
         id="g2556"
         transform="matrix(0.35277777,0,0,-0.35277777,246.37194,179.30786)">
        <path
           d="m 0,0 v -9.499 c 0,0 -4.365,2.614 -4.862,5.331 0,0 1.052,2.446 4.862,4.168"
           style="fill:#0e4c8c;fill-opacity:1;fill-rule:nonzero;stroke:none"
           id="path2558" />
      </g>
      <g
         id="g2560"
         transform="matrix(0.35277777,0,0,-0.35277777,249.35749,178.91696)">
        <path
           d="m 0,0 v -6.072 c 0,0 2.779,-0.282 3.418,-2.944 C 7.029,-8.164 8.887,-1.389 0,0"
           style="fill:#0e4c8c;fill-opacity:1;fill-rule:nonzero;stroke:none"
           id="path2562" />
      </g>
      <path
         d="m 207.82673,191.70904 h 40.00394 v -11.00596 h -40.00394 z"
         style="fill:#1c2674;fill-opacity:1;fill-rule:nonzero;stroke:none;stroke-width:0.352777"
         id="path2564" />
      <path
         d="m 247.83067,191.70904 h -40.00394 v -11.00596 h 40.00394 z"
         style="fill:none;stroke:#ffffff;stroke-width:0.365125;stroke-linecap:butt;stroke-linejoin:miter;stroke-miterlimit:4;stroke-dasharray:none;stroke-opacity:1"
         id="path2566" />
      <path
         d="m 248.07303,191.70904 h 40.005 v -11.00596 h -40.005 z"
         style="fill:#48a942;fill-opacity:1;fill-rule:nonzero;stroke:none;stroke-width:0.352777"
         id="path2568" />
      <path
         d="m 288.07803,191.70904 h -40.005 v -11.00596 h 40.005 z"
         style="fill:none;stroke:#ffffff;stroke-width:0.365125;stroke-linecap:butt;stroke-linejoin:miter;stroke-miterlimit:4;stroke-dasharray:none;stroke-opacity:1"
         id="path2570" />
      <g
         id="g2572"
         transform="matrix(0.35277777,0,0,-0.35277777,249.35749,182.47508)">
        <path
           d="M 0,0 V 2.313 C 2.207,2.255 2.467,0 2.467,0 Z M 11.149,-0.906 C 9.756,-0.084 8.759,0.011 7.54,0.011 L 3.866,0 c 0,0 4.581,0.984 3.912,5.754 -0.671,4.78 -7.215,5.854 -7.816,5.884 v 1.489 c 0.053,0.891 0.623,2.533 1.505,3.3 0,0 -4.225,4.38 -8.46,0.903 0,0 -1.763,-1.242 -1.625,-4.89 l -0.044,-1.714 c 0,0 -4.183,-2.194 -6.593,-5.674 -2.428,-3.513 -2.573,-5.371 -2.573,-5.371 0,0 -2.133,-0.089 -3.453,0.802 0,0 -3.57,-8.071 2.429,-8.664 l 3.175,-0.043 7.311,-4.129 v -5.86 c 0,0 -1.272,-0.36 -2.931,0.588 -1.584,0.903 -1.548,2.077 -2.028,3.587 0,0 -5.805,-0.444 -5.786,-5.94 0.031,-5.536 5.192,-6.339 5.192,-6.339 0,0 3.112,-0.794 5.618,-0.669 v -6.184 c 0,0 -0.019,-2.663 -1.532,-3.337 0,0 0.654,-1.565 4.428,-1.885 0,0 5.005,-0.954 5.377,4.689 v 8.637 c 0,0 3.044,1.465 4.371,4.623 1.156,1.137 2.165,2.846 2.328,4.845 0,0 0.524,4.276 -3.562,7.434 h 6.037 c 0,0 2.041,-0.076 3.108,-1.479 0.649,0.838 2.858,6.37 -1.105,8.737"
           style="fill:#ffffff;fill-opacity:1;fill-rule:nonzero;stroke:none"
           id="path2574" />
      </g>
      <g
         id="g2576"
         transform="matrix(0.35277777,0,0,-0.35277777,242.13155,182.82292)">
        <path
           d="m 0,0 c 0,0 0.649,-0.575 2.523,-0.556 0,0 -0.892,-3.151 1.568,-5.522 0,0 -4.208,-0.888 -4.736,2.513 C -0.748,-2.784 -0.566,-1.338 0,0"
           style="fill:#ffcf00;fill-opacity:1;fill-rule:nonzero;stroke:none"
           id="path2578" />
      </g>
      <g
         id="g2580"
         transform="matrix(0.35277777,0,0,-0.35277777,246.37194,179.30786)">
        <path
           d="m 0,0 v -9.499 c 0,0 -4.365,2.614 -4.862,5.331 0,0 1.052,2.446 4.862,4.168"
           style="fill:#1c2674;fill-opacity:1;fill-rule:nonzero;stroke:none"
           id="path2582" />
      </g>
      <g
         id="g2584"
         transform="matrix(0.35277777,0,0,-0.35277777,249.35749,178.91696)">
        <path
           d="m 0,0 v -6.072 c 0,0 2.779,-0.282 3.418,-2.944 C 7.029,-8.164 8.887,-1.389 0,0"
           style="fill:#1c2674;fill-opacity:1;fill-rule:nonzero;stroke:none"
           id="path2586" />
      </g>
      <g
         id="g2588"
         transform="matrix(0.35277777,0,0,-0.35277777,249.32574,188.41727)">
        <path
           d="m 0,0 v -6.556 c 0,0 2.115,1.166 3.031,3.452 0,0 -0.17,1.767 -3.031,3.104"
           style="fill:#1c2674;fill-opacity:1;fill-rule:nonzero;stroke:none"
           id="path2590" />
      </g>
      <g
         id="g2592"
         transform="matrix(0.35277777,0,0,-0.35277777,246.3991,189.32815)">
        <path
           d="m 0,0 v -6.088 c 0,0 -9.132,-0.972 -9.329,5.639 -0.089,3.193 2.865,4.25 3.503,4.391 C -5.522,1.522 -4.085,0.161 0,0"
           style="fill:#1c2674;fill-opacity:1;fill-rule:nonzero;stroke:none"
           id="path2594" />
      </g>
      <g
         id="g2596"
         transform="matrix(0.35277777,0,0,-0.35277777,244.29549,181.11935)">
        <path
           d="m 0,0 c 0,0 -5.535,-6.651 0.089,-11.199 l 14.658,-7.968 c 0,0 2.483,-1.038 3.186,-3.351 0,0 4.959,5.334 -3.105,10.951 l -8.059,5.002 c 0,0 -5.818,2.722 -6.769,6.565"
           style="fill:#1c2674;fill-opacity:1;fill-rule:nonzero;stroke:none"
           id="path2598" />
      </g>
      <g
         id="g2600"
         transform="matrix(0.35277777,0,0,-0.35277777,246.92933,187.0439)">
        <path
           d="m 0,0 5.576,-3.227 v -17.208 c 0,0 -0.196,-5.55 -6.353,-2.912 0,0 0.644,0.686 0.777,2.772"
           style="fill:#ffcf00;fill-opacity:1;fill-rule:nonzero;stroke:none"
           id="path2602" />
      </g>
      <g
         id="g2604"
         transform="matrix(0.35277777,0,0,-0.35277777,249.23755,176.8183)">
        <path
           d="m 0,0 c -0.901,0.567 -7.265,3.971 -6.943,-4.986 v -12.372 l 9.151,-5.594 h 7.05 c 0,0 2.195,-0.06 3,-1.022 0,0 2.674,5.868 -4.116,6.461 L -1.01,-17.517 -1.022,-3.722 C -1.141,-1.561 0,0 0,0"
           style="fill:#ffcf00;fill-opacity:1;fill-rule:nonzero;stroke:none"
           id="path2606" />
      </g>
      <g
         id="g2608"
         transform="matrix(0.35277777,0,0,-0.35277777,210.73186,186.96876)">
        <path
           d="m 0,0 c 0,-2.988 1.918,-3.859 4.481,-3.927 1.934,-0.057 3.764,0.659 3.797,2.261 0.029,2.143 -3.475,2.483 -6.636,3.403 -3.199,0.927 -6.026,2.274 -6.026,6.287 0,4.701 4.455,6.681 8.337,6.681 4.354,0 8.946,-1.906 8.767,-7.483 H 7.578 C 7.673,9.631 5.895,10.43 3.645,10.43 2.411,10.43 0.792,9.845 0.792,8.407 0.653,6.357 4.702,6.17 7.979,5.183 c 3.465,-1.045 5.476,-3.042 5.476,-6.166 0,-4.38 -3.26,-7.151 -9.044,-7.151 -6.133,0 -9.727,3.019 -9.515,8.134"
           style="fill:#ffffff;fill-opacity:1;fill-rule:nonzero;stroke:none"
           id="path2610" />
      </g>
      <path
         d="m 215.85454,189.67704 h 1.71168 v -5.64409 h -1.71168 z"
         style="fill:#ffffff;fill-opacity:1;fill-rule:nonzero;stroke:none;stroke-width:0.352777"
         id="path2612" />
      <path
         d="m 218.05693,189.67563 h 1.70957 v -7.61717 h -1.70957 z"
         style="fill:#ffffff;fill-opacity:1;fill-rule:nonzero;stroke:none;stroke-width:0.352777"
         id="path2614" />
      <g
         id="g2616"
         transform="matrix(0.35277777,0,0,-0.35277777,223.21349,188.48149)">
        <path
           d="M 0,0 C 2.507,0 3.51,1.994 3.51,4.54 3.51,6.673 2.78,9.21 0.102,9.21 -2.323,9.21 -3.374,7.314 -3.374,4.618 -3.374,2.59 -2.652,0 0,0 m -0.067,13.033 c 5.511,0 8.425,-3.581 8.425,-8.493 0,-4.801 -2.936,-8.306 -8.535,-8.306 -4.954,0 -8.095,3.505 -8.095,8.306 0,4.912 2.964,8.493 8.205,8.493"
           style="fill:#ffffff;fill-opacity:1;fill-rule:nonzero;stroke:none"
           id="path2618" />
      </g>
      <g
         id="g2620"
         transform="matrix(0.35277777,0,0,-0.35277777,229.02268,188.60214)">
        <path
           d="M 0,0 C 2.485,-0.012 3.247,1.33 3.133,4.197 2.863,3.889 -0.036,3.571 -0.036,3.571 -1.313,3.352 -2.269,2.836 -2.269,1.671 -2.269,0.318 -1.163,0.007 0,0 m -6.685,7.583 c 0.199,2.691 1.211,3.848 2.623,4.679 1.424,0.794 3.286,1.106 5.092,1.106 1.596,0 6.956,-0.074 6.956,-4.662 V 1.007 c 0,-1.35 0.039,-3.065 0.812,-4.049 H 3.697 c -0.143,0.453 -0.233,0.739 -0.304,1.126 -0.908,-0.93 -2.832,-1.543 -5.236,-1.527 -3.193,0.044 -5.254,1.685 -5.254,4.946 0,5.066 4.874,4.672 8.726,5.407 1.04,0.197 1.513,0.399 1.513,1.392 0,1.347 -1.346,1.651 -2.42,1.606 C -1.335,9.814 -1.65,9.004 -1.793,7.583"
           style="fill:#ffffff;fill-opacity:1;fill-rule:nonzero;stroke:none"
           id="path2622" />
      </g>
      <g
         id="g2624"
         transform="matrix(0.35277777,0,0,-0.35277777,232.51976,184.03294)">
        <path
           d="m 0,0 h 4.58 v -1.542 h 0.065 c 1.121,1.362 2.593,1.96 4.614,1.96 0.87,0 3.509,-0.332 4.365,-2.258 1.306,1.564 2.539,2.258 4.83,2.258 4.72,0 5.747,-3.377 5.68,-5.581 V -15.991 H 19.278 V -6.1 c -0.017,1.959 -0.918,2.574 -2.22,2.556 -2.128,-0.018 -2.429,-1.646 -2.54,-3.179 v -9.268 H 9.655 v 9.683 c -0.019,2.027 -0.718,2.734 -2.135,2.734 -1.87,0 -2.576,-1.44 -2.65,-2.809 v -9.608 H 0"
           style="fill:#ffffff;fill-opacity:1;fill-rule:nonzero;stroke:none"
           id="path2626" />
      </g>
      <g
         id="g2628"
         transform="matrix(0.35277777,0,0,-0.35277777,217.56093,182.8628)">
        <path
           d="m 0,0 c 0,-1.388 -1.137,-2.522 -2.519,-2.522 -1.394,0 -2.528,1.134 -2.528,2.522 0,1.393 1.134,2.524 2.528,2.524 C -1.137,2.524 0,1.393 0,0"
           style="fill:#ffffff;fill-opacity:1;fill-rule:nonzero;stroke:none"
           id="path2630" />
      </g>
      <g
         id="g2632"
         transform="matrix(0.35277777,0,0,-0.35277777,254.72995,182.45428)">
        <path
           d="m 0,0 h 2.197 v -8 h 7.47 v 8 h 2.185 V -19.73 H 9.667 v 9.318 H 2.197 V -19.73 H 0"
           style="fill:#ffffff;fill-opacity:1;fill-rule:nonzero;stroke:none"
           id="path2634" />
      </g>
      <g
         id="g2636"
         transform="matrix(0.35277777,0,0,-0.35277777,260.06712,186.81107)">
        <path
           d="m 0,0 c 0,-2.868 1.551,-5.735 4.689,-5.735 3.137,0 4.692,2.867 4.692,5.735 0,2.876 -1.555,5.743 -4.692,5.743 C 1.551,5.743 0,2.876 0,0 m 11.331,0 c 0,-4.018 -2.347,-7.413 -6.671,-7.413 -4.312,0 -6.663,3.395 -6.663,7.413 0,4.029 2.351,7.431 6.663,7.431 4.324,0 6.671,-3.402 6.671,-7.431"
           style="fill:#ffffff;fill-opacity:1;fill-rule:nonzero;stroke:none"
           id="path2638" />
      </g>
      <g
         id="g2640"
         transform="matrix(0.35277777,0,0,-0.35277777,267.31459,185.85433)">
        <path
           d="m 0,0 c 0.021,2.009 -1.37,3.031 -3.307,3.031 -1.609,0 -2.94,-0.808 -2.94,-2.168 0,-1.534 1.69,-2.018 2.855,-2.313 l 2.387,-0.541 c 1.887,-0.514 3.297,-1.72 3.297,-3.779 0,-3.067 -2.609,-4.323 -5.226,-4.323 -3.509,0 -5.456,1.653 -5.6,5.064 h 1.872 c -0.062,-1.908 1.4,-3.398 3.689,-3.398 1.517,0 3.401,0.597 3.401,2.447 0,1.572 -1.374,2.032 -2.484,2.34 l -2.526,0.622 c -2.216,0.616 -3.505,1.519 -3.505,3.818 0,2.927 2.86,3.929 5.053,3.929 2.801,0 4.812,-1.596 4.905,-4.729"
           style="fill:#ffffff;fill-opacity:1;fill-rule:nonzero;stroke:none"
           id="path2642" />
      </g>
      <g
         id="g2644"
         transform="matrix(0.35277777,0,0,-0.35277777,286.1688,185.85433)">
        <path
           d="m 0,0 c 0.008,2.009 -1.378,3.031 -3.317,3.031 -1.607,0 -2.932,-0.808 -2.932,-2.168 0,-1.534 1.671,-2.018 2.862,-2.313 l 2.383,-0.541 c 1.88,-0.514 3.289,-1.72 3.289,-3.779 0,-3.067 -2.607,-4.323 -5.227,-4.323 -3.509,0 -5.463,1.653 -5.594,5.064 h 1.866 c -0.055,-1.908 1.397,-3.398 3.696,-3.398 1.506,0 3.393,0.597 3.393,2.447 0,1.572 -1.366,2.032 -2.49,2.34 l -2.523,0.622 C -6.812,-2.402 -8.1,-1.499 -8.1,0.8 c 0,2.927 2.861,3.929 5.061,3.929 2.805,0 4.812,-1.596 4.901,-4.729"
           style="fill:#ffffff;fill-opacity:1;fill-rule:nonzero;stroke:none"
           id="path2646" />
      </g>
      <g
         id="g2648"
         transform="matrix(0.35277777,0,0,-0.35277777,270.78557,184.85246)">
        <path
           d="m 0,0 c -3.35,0 -4.366,-2.644 -4.366,-5.674 0,-2.755 1.13,-5.671 4.366,-5.671 2.898,0 4.072,2.916 4.072,5.671 C 4.072,-2.904 2.898,0 0,0 m -6.2,1.309 h 1.683 v -2.212 h 0.057 c 0.778,1.719 2.406,2.583 4.588,2.583 3.737,0 5.77,-3.292 5.77,-7.323 0,-3.998 -1.902,-7.322 -5.84,-7.322 -2.525,0 -4.05,1.431 -4.378,2.501 H -4.382 V -17.64 H -6.2"
           style="fill:#ffffff;fill-opacity:1;fill-rule:nonzero;stroke:none"
           id="path2650" />
      </g>
      <g
         id="g2652"
         transform="matrix(0.35277777,0,0,-0.35277777,276.14215,184.33774)">
        <path
           d="M 0,0 H 2.766 V -1.661 H 0 v -9.359 c 0,-0.307 -0.043,-1.384 0.962,-1.438 0.496,-0.034 1.114,-0.018 1.786,0.035 v -1.705 l -2.371,0.005 c -2.375,0.227 -2.367,1.921 -2.367,2.966 v 9.496 H -4.378 V 0 H -1.99 V 4.168 H 0"
           style="fill:#ffffff;fill-opacity:1;fill-rule:nonzero;stroke:none"
           id="path2654" />
      </g>
      <g
         id="g2656"
         transform="matrix(0.35277777,0,0,-0.35277777,280.58891,186.70629)">
        <path
           d="m 0,0 h -0.048 c -0.317,-0.288 -0.894,-0.346 -1.313,-0.419 -2.637,-0.497 -5.869,-0.498 -5.869,-3.057 0,-1.603 1.328,-2.553 2.78,-2.553 2.377,0 4.337,1.503 4.45,4.107 z m -8.554,2.255 c 0.063,3.304 2.224,4.889 5.453,4.889 2.317,0 4.941,-0.763 4.939,-4.475 v -7.332 c 0,-0.474 0.192,-0.99 0.847,-0.921 0.242,0.016 0.498,0.097 0.624,0.148 V -7.17 C 2.934,-7.249 2.661,-7.296 2.192,-7.311 0.48,-7.362 0.117,-6.254 0.117,-5.183 H 0.074 c -1.133,-1.788 -2.461,-2.494 -4.821,-2.494 -2.379,0 -4.396,1.225 -4.379,4.296 0.048,3.518 3.137,3.927 6.853,4.367 1.415,0.162 2.273,0.239 2.269,1.73 -0.009,2.259 -1.49,2.711 -3.334,2.711 -0.54,0 -3.321,0.059 -3.368,-3.172"
           style="fill:#ffffff;fill-opacity:1;fill-rule:nonzero;stroke:none"
           id="path2658" />
      </g>
      <path
         d="m 282.19687,189.28229 h 0.68898 v -6.81108 h -0.68898 z"
         style="fill:#ffffff;fill-opacity:1;fill-rule:nonzero;stroke:none;stroke-width:0.352777"
         id="path2660" />
      <path
         d="m 273.37214,189.28017 h 0.678 v -4.95053 h -0.678 z"
         style="fill:#ffffff;fill-opacity:1;fill-rule:nonzero;stroke:none;stroke-width:0.352777"
         id="path2662" />
      <g
         id="g2664"
         transform="matrix(0.35277777,0,0,-0.35277777,274.21986,183.50732)">
        <path
           d="m 0,0 c 0,-0.741 -0.599,-1.333 -1.342,-1.333 -0.738,0 -1.341,0.592 -1.341,1.333 0,0.74 0.603,1.345 1.341,1.345 C -0.599,1.345 0,0.74 0,0"
           style="fill:#ffffff;fill-opacity:1;fill-rule:nonzero;stroke:none"
           id="path2666" />
      </g>
    </g>
  </g>
</svg>
