<svg width="80" height="18" viewBox="0 0 80 18" fill="none" xmlns="http://www.w3.org/2000/svg">
<path d="M0 1.6325C0 0.731411 0.730406 1.90735e-06 1.63249 1.90735e-06H16.2913C17.1924 1.90735e-06 17.9238 0.731411 17.9238 1.6325V16.2923C17.9238 17.1934 17.1924 17.9248 16.2913 17.9248H1.63249C0.730406 17.9248 0 17.1934 0 16.2923V1.6325Z" fill="#ED1D24"/>
<path d="M14.1697 9.12809C14.0708 12.5537 11.2616 15.3011 7.81038 15.3011C4.36016 15.3011 1.55098 12.5537 1.45209 9.12809H1.76684C1.79445 11.8118 3.97864 13.9794 6.66934 13.9794C9.36055 13.9794 11.5442 11.8118 11.5713 9.12809H14.1697Z" fill="white"/>
<path d="M17.1228 9.12818C17.0345 13.5598 13.4146 17.125 8.96137 17.125C4.50815 17.125 0.888251 13.5598 0.800903 9.12818H1.13423C1.24015 12.7295 4.1934 15.616 7.82033 15.616C11.4468 15.616 14.4 12.7295 14.5059 9.12818H17.1228Z" fill="white"/>
<path d="M11.24 9.1281C11.2205 11.6381 9.17985 13.6656 6.66535 13.6656C4.15135 13.6656 2.11023 11.6381 2.09015 9.1281H2.42849C2.42649 9.16525 2.42649 9.2034 2.42649 9.24105C2.42649 11.0467 3.89031 12.5106 5.69549 12.5106C7.50168 12.5106 8.9655 11.0467 8.9655 9.24105C8.9655 9.2034 8.9655 9.16525 8.96349 9.1281H11.24Z" fill="white"/>
<path d="M6.6828 8.79675C6.70238 6.28677 8.7435 4.25921 11.2575 4.25921C13.7725 4.25921 15.8126 6.28677 15.8327 8.79675H15.4954C15.4964 8.75961 15.4974 8.72145 15.4974 8.6838C15.4974 6.87812 14.0335 5.4143 12.2274 5.4143C10.4212 5.4143 8.95735 6.87812 8.95735 8.6838C8.95735 8.72145 8.95835 8.75961 8.95936 8.79675H6.6828Z" fill="white"/>
<path d="M0.801086 8.79675C0.888434 4.36513 4.50934 0.799944 8.96155 0.799944C13.4148 0.799944 17.0347 4.36513 17.123 8.79675H16.7887C16.6828 5.19543 13.7305 2.30895 10.1026 2.30895C6.47616 2.30895 3.52392 5.19543 3.418 8.79675H0.801086Z" fill="white"/>
<path d="M3.75421 8.79675C3.8531 5.37113 6.66228 2.6237 10.1125 2.6237C13.5627 2.6237 16.3719 5.37113 16.4708 8.79675H16.1561C16.1294 6.11308 13.9453 3.94546 11.2535 3.94546C8.56334 3.94546 6.37915 6.11308 6.35255 8.79675H3.75421Z" fill="white"/>
<path fill-rule="evenodd" clip-rule="evenodd" d="M72.7161 15.6038L74.7868 15.2881C74.8741 15.6902 75.0533 15.9959 75.3219 16.2067C75.592 16.4115 75.9685 16.5145 76.4534 16.5145C76.987 16.5145 77.3881 16.4166 77.6577 16.2208C77.8379 16.0842 77.9293 15.9 77.9293 15.6706C77.9293 15.5135 77.8801 15.3845 77.7822 15.281C77.6793 15.1832 77.4499 15.0928 77.0919 15.0095C75.4268 14.642 74.3731 14.3067 73.9269 14.0035C73.3104 13.5823 73.0022 12.998 73.0022 12.2485C73.0022 11.5733 73.2693 11.0055 73.8024 10.5447C74.336 10.0849 75.1633 9.85547 76.2837 9.85447C77.3515 9.85447 78.1441 10.0292 78.6637 10.376C79.1823 10.7239 79.5392 11.238 79.7349 11.9182L77.7897 12.2781C77.7064 11.9744 77.5468 11.742 77.3123 11.5798C77.0819 11.4192 76.7516 11.3379 76.3214 11.3379C75.7782 11.3379 75.3887 11.4142 75.1532 11.5653C74.9966 11.6732 74.9183 11.8133 74.9183 11.9839C74.9183 12.131 74.9866 12.2555 75.1241 12.3584C75.3104 12.496 75.9514 12.6887 77.0478 12.9387C78.1486 13.1882 78.9177 13.4949 79.3539 13.8569C79.7841 14.2243 79.999 14.7354 80 15.391C80 16.1058 79.7008 16.7208 79.1039 17.2343C78.5066 17.7479 77.6231 18.0049 76.4534 18.0049C75.3907 18.0049 74.5483 17.79 73.9269 17.3588C73.3104 16.9286 72.9063 16.3433 72.7161 15.6038Z" fill="#414042"/>
<path fill-rule="evenodd" clip-rule="evenodd" d="M53.0587 10.0308H54.9598V11.0956C55.6405 10.2683 56.4502 9.85512 57.3905 9.85412C57.8895 9.85412 58.3227 9.95753 58.6906 10.1633C59.0571 10.3692 59.3583 10.6799 59.5937 11.0956C59.9356 10.6799 60.3056 10.3692 60.7027 10.1633C61.0987 9.95753 61.5219 9.85412 61.9722 9.85412C62.5445 9.85412 63.0299 9.97209 63.426 10.2075C63.8221 10.4379 64.1183 10.7778 64.3145 11.2281C64.4566 11.5604 64.5274 12.0996 64.5274 12.843V17.8293H62.4642V13.3721C62.4642 12.5985 62.3929 12.0996 62.2513 11.8742C62.0606 11.58 61.7674 11.4339 61.3703 11.4339C61.0807 11.4339 60.8091 11.5223 60.5556 11.6975C60.3006 11.8742 60.1173 12.1337 60.0044 12.476C59.8914 12.8144 59.8357 13.3495 59.8357 14.0839V17.8293H57.772V13.5553C57.772 12.7968 57.7353 12.3074 57.662 12.087C57.5883 11.8661 57.4738 11.7025 57.3167 11.5945C57.1651 11.4876 56.9572 11.4339 56.6932 11.4339C56.3744 11.4339 56.0883 11.5192 55.8343 11.6909C55.5793 11.8611 55.395 12.1096 55.2836 12.4319C55.1756 12.7557 55.1214 13.2908 55.1214 14.0398V17.8293H53.0587V10.0308Z" fill="#414042"/>
<path fill-rule="evenodd" clip-rule="evenodd" d="M49.8614 17.8295H47.7987V10.031H49.7153V11.1399C50.0426 10.6163 50.3368 10.2709 50.5958 10.1042C50.8604 9.93758 51.1586 9.85525 51.4919 9.85425C51.9618 9.85425 52.4146 9.98477 52.8498 10.2438L52.2118 12.043C51.8634 11.8181 51.5411 11.7056 51.2419 11.7056C50.9538 11.7056 50.7083 11.7859 50.5085 11.9476C50.3077 12.1047 50.1486 12.3908 50.0311 12.8065C49.9181 13.2221 49.8614 14.0941 49.8614 15.4204V17.8295Z" fill="#414042"/>
<path fill-rule="evenodd" clip-rule="evenodd" d="M39.1607 17.8295H37.098V13.8486C37.098 13.0078 37.0538 12.4641 36.9654 12.2192C36.8771 11.9692 36.733 11.7759 36.5322 11.6388C36.3359 11.5023 36.0985 11.434 35.8204 11.434C35.4625 11.434 35.1417 11.5309 34.8586 11.7272C34.5739 11.923 34.3782 12.182 34.2702 12.5058C34.1683 12.8291 34.1161 13.4265 34.1161 14.2969V17.8295H32.0534V10.031H33.969V11.176C34.6497 10.2955 35.5066 9.85425 36.5387 9.85425C36.9951 9.85425 37.4107 9.93758 37.7882 10.1042C38.1647 10.2664 38.4478 10.4742 38.6391 10.7287C38.8354 10.9827 38.9694 11.2719 39.0432 11.5947C39.1215 11.9185 39.1607 12.3808 39.1607 12.9832V17.8295Z" fill="#414042"/>
<path fill-rule="evenodd" clip-rule="evenodd" d="M28.6423 10.031H30.705V17.8295H28.6423V10.031Z" fill="#414042"/>
<path fill-rule="evenodd" clip-rule="evenodd" d="M28.6423 7.06514H30.705V8.97424H28.6423V7.06514Z" fill="#414042"/>
<path fill-rule="evenodd" clip-rule="evenodd" d="M20.3034 15.6038L22.3741 15.2881C22.4625 15.6902 22.6407 15.9959 22.9103 16.2067C23.1793 16.4115 23.5563 16.5145 24.0408 16.5145C24.5744 16.5145 24.9765 16.4166 25.2451 16.2208C25.4263 16.0842 25.5166 15.9 25.5166 15.6706C25.5166 15.5135 25.4675 15.3845 25.3706 15.281C25.2677 15.1832 25.0372 15.0928 24.6803 15.0095C23.0152 14.642 21.9605 14.3067 21.5152 14.0035C20.8988 13.5823 20.5895 12.998 20.5895 12.2485C20.5895 11.5733 20.8566 11.0055 21.3907 10.5447C21.9244 10.0849 22.7506 9.85547 23.8721 9.85447C24.9388 9.85447 25.732 10.0292 26.2511 10.376C26.7696 10.7239 27.1276 11.238 27.3233 11.9182L25.3771 12.2781C25.2938 11.9744 25.1351 11.742 24.8997 11.5798C24.6693 11.4192 24.34 11.3379 23.9087 11.3379C23.3656 11.3379 22.976 11.4142 22.7416 11.5653C22.585 11.6732 22.5067 11.8133 22.5067 11.9839C22.5067 12.131 22.5749 12.2555 22.7125 12.3584C22.8977 12.496 23.5388 12.6887 24.6361 12.9387C25.737 13.1882 26.5056 13.4949 26.9413 13.8569C27.3715 14.2243 27.5874 14.7354 27.5874 15.391C27.5874 16.1058 27.2882 16.7208 26.6923 17.2343C26.0939 17.7479 25.2104 18.0049 24.0408 18.0049C22.9791 18.0049 22.1367 17.79 21.5152 17.3588C20.8988 16.9286 20.4947 16.3433 20.3034 15.6038Z" fill="#414042"/>
<path fill-rule="evenodd" clip-rule="evenodd" d="M70.1345 14.4959C70.1335 14.9899 70.1069 15.3252 70.0532 15.5019C69.9749 15.7705 69.8107 15.9979 69.5618 16.1841C69.2239 16.4296 68.869 16.5521 68.497 16.5521C68.1637 16.5521 67.8891 16.4462 67.6748 16.2353C67.4589 16.0255 67.351 15.7755 67.351 15.4864C67.351 15.1932 67.4865 14.9507 67.7551 14.7595C67.9313 14.642 68.3058 14.5225 68.8785 14.4C69.4513 14.2771 69.87 14.1721 70.1345 14.0843V14.4959ZM72.2349 16.786C72.1711 16.4587 72.1385 15.9517 72.1385 15.2665L72.1611 12.8574C72.1601 11.9624 72.0682 11.3479 71.8815 11.0151C71.7003 10.6772 71.3845 10.4006 70.9347 10.1848C70.4844 9.96541 69.7982 9.85447 68.8785 9.85447C67.8655 9.85547 67.102 10.0357 66.5884 10.3986C66.0734 10.7606 65.7115 11.3183 65.5011 12.0723L67.3736 12.4106C67.5011 12.0477 67.6667 11.7957 67.8725 11.6536C68.0784 11.5065 68.365 11.4337 68.7315 11.4337C69.2756 11.4337 69.6441 11.5191 69.8404 11.6908C70.0366 11.8574 70.1345 12.1391 70.1345 12.5351V12.7409C69.762 12.8966 69.0944 13.0662 68.1296 13.247C67.4147 13.384 66.8665 13.5456 66.485 13.7324C66.108 13.9126 65.8149 14.1772 65.604 14.5255C65.3932 14.8674 65.2883 15.259 65.2883 15.6997C65.2883 16.3659 65.5187 16.9156 65.9785 17.3518C66.4429 17.7875 67.0774 18.0049 67.8806 18.0049C68.3354 18.0049 68.7641 17.9195 69.1647 17.7484C69.5668 17.5777 69.9433 17.3197 70.2952 16.9773C70.3102 17.0165 70.3343 17.0973 70.369 17.2198C70.4473 17.4893 70.513 17.6921 70.5677 17.8297H72.6084C72.4276 17.4567 72.3021 17.1098 72.2349 16.786Z" fill="#414042"/>
<path fill-rule="evenodd" clip-rule="evenodd" d="M44.8042 14.4959C44.8042 14.9899 44.7766 15.3252 44.7239 15.5019C44.6446 15.7705 44.4804 15.9979 44.2314 16.1841C43.8936 16.4296 43.5387 16.5521 43.1667 16.5521C42.8334 16.5521 42.5598 16.4462 42.3444 16.2353C42.1286 16.0255 42.0217 15.7755 42.0217 15.4864C42.0217 15.1932 42.1562 14.9507 42.4258 14.7595C42.601 14.642 42.9754 14.5225 43.5482 14.4C44.121 14.2771 44.5397 14.1721 44.8042 14.0843V14.4959ZM46.9046 16.786C46.8408 16.4587 46.8082 15.9517 46.8082 15.2665L46.8308 12.8574C46.8308 11.9624 46.7379 11.3479 46.5512 11.0151C46.3699 10.6772 46.0542 10.4006 45.6044 10.1848C45.1541 9.96541 44.4689 9.85447 43.5482 9.85447C42.5352 9.85547 41.7717 10.0357 41.2581 10.3986C40.7431 10.7606 40.3811 11.3183 40.1713 12.0723L42.0432 12.4106C42.1707 12.0477 42.3374 11.7957 42.5422 11.6536C42.748 11.5065 43.0347 11.4337 43.4011 11.4337C43.9453 11.4337 44.3138 11.5191 44.51 11.6908C44.7063 11.8574 44.8042 12.1391 44.8042 12.5351V12.7409C44.4317 12.8966 43.7641 13.0662 42.7992 13.247C42.0854 13.384 41.5362 13.5456 41.1547 13.7324C40.7777 13.9126 40.4845 14.1772 40.2737 14.5255C40.0629 14.8674 39.9579 15.259 39.9579 15.6997C39.9579 16.3659 40.1884 16.9156 40.6482 17.3518C41.1125 17.7875 41.7471 18.0049 42.5503 18.0049C43.0051 18.0049 43.4338 17.9195 43.8344 17.7484C44.2365 17.5777 44.613 17.3197 44.9659 16.9773C44.9809 17.0165 45.004 17.0973 45.0397 17.2198C45.117 17.4893 45.1837 17.6921 45.2374 17.8297H47.2791C47.0973 17.4567 46.9718 17.1098 46.9046 16.786Z" fill="#414042"/>
<path d="M20.7166 5.34993H21.719V4.8554H21.7338C21.964 5.28249 22.4317 5.45483 22.996 5.45483C23.7608 5.45483 24.5849 4.83292 24.5849 3.40927C24.5849 1.99311 23.7608 1.3712 22.996 1.3712C22.5208 1.3712 22.0456 1.55103 21.7858 1.94815H21.7709V0H20.7166V5.34993ZM23.5306 3.41676C23.5306 4.06115 23.2559 4.65309 22.6322 4.65309C22.0085 4.65309 21.7338 4.06115 21.7338 3.41676C21.7338 2.76488 22.0085 2.17294 22.6322 2.17294C23.2559 2.17294 23.5306 2.76488 23.5306 3.41676Z" fill="#414042"/>
<path d="M27.337 3.85135C27.337 4.08363 27.3073 4.743 26.4832 4.743C26.1416 4.743 25.8372 4.6456 25.8372 4.24847C25.8372 3.85884 26.1342 3.74645 26.4609 3.67901C26.7876 3.61907 27.1588 3.61158 27.337 3.45422V3.85135ZM25.956 2.66747C25.9931 2.24787 26.253 2.08302 26.6539 2.08302C27.0252 2.08302 27.337 2.15046 27.337 2.60753C27.337 3.04212 26.7356 3.01964 26.0896 3.11704C25.4363 3.20696 24.7829 3.41676 24.7829 4.29343C24.7829 5.08768 25.362 5.45483 26.0896 5.45483C26.5574 5.45483 27.0474 5.32745 27.3816 4.97528C27.389 5.10266 27.4187 5.23004 27.4558 5.34993H28.525C28.4284 5.19258 28.3913 4.84041 28.3913 4.48824V2.47266C28.3913 1.54354 27.4707 1.3712 26.7059 1.3712C25.8446 1.3712 24.9611 1.67092 24.9017 2.66747H25.956Z" fill="#414042"/>
<path d="M28.9003 5.34993H29.9546V3.31935C29.9546 2.5326 30.1996 2.2104 30.7714 2.2104C31.2614 2.2104 31.447 2.52511 31.447 3.162V5.34993H32.5013V2.96719C32.5013 2.0081 32.2192 1.3712 31.098 1.3712C30.6526 1.3712 30.1922 1.581 29.9249 2.01559H29.9027V1.4761H28.9003V5.34993Z" fill="#414042"/>
<path d="M33.0887 5.34993H34.143V4.01619L34.5514 3.61907L35.6057 5.34993H36.8827L35.2716 2.89975L36.7194 1.4761H35.472L34.143 2.86978V0H33.0887V5.34993Z" fill="#414042"/>
</svg>
